{"asset":{"version":"2.0","generator":"Blockbench 4.10.0 glTF exporter"},"scenes":[{"nodes":[1],"name":"blockbench_export"}],"scene":0,"nodes":[{"rotation":[4.329780281177466e-17,0.7071067811865475,-0.7071067811865476,4.329780281177467e-17],"translation":[-0.03125,0.078125,0],"name":"feather","mesh":0},{"children":[0]}],"bufferViews":[{"buffer":0,"byteOffset":0,"byteLength":1176,"target":34962,"byteStride":12},{"buffer":0,"byteOffset":1176,"byteLength":1176,"target":34962,"byteStride":12},{"buffer":0,"byteOffset":2352,"byteLength":784,"target":34962,"byteStride":8},{"buffer":0,"byteOffset":3136,"byteLength":276,"target":34963}],"buffers":[{"byteLength":3412,"uri":"data:application/octet-stream;base64,"}],"accessors":[{"bufferView":0,"componentType":5126,"count":98,"max":[0.03125,0.25,0.078125],"min":[0.015625,-0.1875,-0.078125],"type":"VEC3"},{"bufferView":1,"componentType":5126,"count":98,"max":[0.9989719986915588,0.47222140431404114,0.99430912733078],"min":[-0.9989719986915588,-1,-0.99430912733078],"type":"VEC3"},{"bufferView":2,"componentType":5126,"count":98,"max":[0.520312488079071,0.7724999785423279],"min":[0.00005937900277785957,0],"type":"VEC2"},{"bufferView":3,"componentType":5123,"count":138,"max":[97],"min":[0],"type":"SCALAR"}],"materials":[{"pbrMetallicRoughness":{"metallicFactor":0,"roughnessFactor":1,"baseColorTexture":{"index":0}},"alphaMode":"MASK","alphaCutoff":0.05,"doubleSided":true}],"textures":[{"sampler":0,"source":0,"name":"feather_txt"}],"samplers":[{"magFilter":9728,"minFilter":9728,"wrapS":33071,"wrapT":33071}],"images":[{"mimeType":"image/png","uri":"data:image/png;base64,"}],"meshes":[{"primitives":[{"mode":4,"attributes":{"POSITION":0,"NORMAL":1,"TEXCOORD_0":2},"indices":3,"material":0}]}]}