{"asset":{"version":"2.0","generator":"Blockbench 4.10.0 glTF exporter"},"scenes":[{"nodes":[19],"name":"blockbench_export"}],"scene":0,"nodes":[{"translation":[0.1875,-1.5,0],"name":"base","mesh":0},{"translation":[0.1875,-0.625,0],"name":"wood_holding","mesh":1},{"translation":[0.78125,-0.8125,0.15625],"name":"pole1","mesh":2},{"translation":[0.78125,-0.8125,-0.15625],"name":"pole2","mesh":3},{"translation":[0.625,-0.8125,-0.421875],"name":"pole3","mesh":4},{"translation":[0.625,-0.8125,0.421875],"name":"pole4","mesh":5},{"translation":[-0.25,-0.8125,-0.421875],"name":"pole7","mesh":6},{"translation":[-0.40625,-0.8125,-0.15625],"name":"pole6","mesh":7},{"translation":[-0.40625,-0.8125,0.15625],"name":"pole5","mesh":8},{"translation":[-0.25,-0.8125,0.421875],"name":"pole4","mesh":9},{"translation":[0.03125,-0.8125,-0.59375],"name":"pole8","mesh":10},{"translation":[0.34375,-0.8125,-0.59375],"name":"pole9","mesh":11},{"translation":[0.03125,-0.8125,0.59375],"name":"pole11","mesh":12},{"translation":[0.34375,-0.8125,0.59375],"name":"pole10","mesh":13},{"rotation":[0,0,0.2249510543438645,0.9743700647852354],"name":"chimney","mesh":14},{"translation":[-0.1875,1.5,0],"name":"tower","children":[0,1,2,3,4,5,6,7,8,9,10,11,12,13,14]},{"rotation":[-0.555570233019602,0,0,0.8314696123025455],"name":"torus","mesh":15},{"rotation":[-0.555570233019602,0,0,0.8314696123025455],"translation":[6.842520377464073e-18,6.661338147750939e-16,-0.06250000000000078],"name":"circle","mesh":16},{"translation":[-6.071532165918825e-18,1.6874999999999993,-0.3124999999999992],"name":"window1","children":[16,17]},{"children":[15,18]}],"bufferViews":[{"buffer":0,"byteOffset":0,"byteLength":7392,"target":34962,"byteStride":12},{"buffer":0,"byteOffset":7392,"byteLength":7392,"target":34962,"byteStride":12},{"buffer":0,"byteOffset":14784,"byteLength":4928,"target":34962,"byteStride":8},{"buffer":0,"byteOffset":19712,"byteLength":1776,"target":34963},{"buffer":0,"byteOffset":21488,"byteLength":2880,"target":34962,"byteStride":12},{"buffer":0,"byteOffset":24368,"byteLength":2880,"target":34962,"byteStride":12},{"buffer":0,"byteOffset":27248,"byteLength":1920,"target":34962,"byteStride":8},{"buffer":0,"byteOffset":29168,"byteLength":720,"target":34963},{"buffer":0,"byteOffset":29888,"byteLength":600,"target":34962,"byteStride":12},{"buffer":0,"byteOffset":30488,"byteLength":600,"target":34962,"byteStride":12},{"buffer":0,"byteOffset":31088,"byteLength":400,"target":34962,"byteStride":8},{"buffer":0,"byteOffset":31488,"byteLength":120,"target":34963},{"buffer":0,"byteOffset":31608,"byteLength":600,"target":34962,"byteStride":12},{"buffer":0,"byteOffset":32208,"byteLength":600,"target":34962,"byteStride":12},{"buffer":0,"byteOffset":32808,"byteLength":400,"target":34962,"byteStride":8},{"buffer":0,"byteOffset":33208,"byteLength":120,"target":34963},{"buffer":0,"byteOffset":33328,"byteLength":600,"target":34962,"byteStride":12},{"buffer":0,"byteOffset":33928,"byteLength":600,"target":34962,"byteStride":12},{"buffer":0,"byteOffset":34528,"byteLength":400,"target":34962,"byteStride":8},{"buffer":0,"byteOffset":34928,"byteLength":120,"target":34963},{"buffer":0,"byteOffset":35048,"byteLength":600,"target":34962,"byteStride":12},{"buffer":0,"byteOffset":35648,"byteLength":600,"target":34962,"byteStride":12},{"buffer":0,"byteOffset":36248,"byteLength":400,"target":34962,"byteStride":8},{"buffer":0,"byteOffset":36648,"byteLength":120,"target":34963},{"buffer":0,"byteOffset":36768,"byteLength":600,"target":34962,"byteStride":12},{"buffer":0,"byteOffset":37368,"byteLength":600,"target":34962,"byteStride":12},{"buffer":0,"byteOffset":37968,"byteLength":400,"target":34962,"byteStride":8},{"buffer":0,"byteOffset":38368,"byteLength":120,"target":34963},{"buffer":0,"byteOffset":38488,"byteLength":600,"target":34962,"byteStride":12},{"buffer":0,"byteOffset":39088,"byteLength":600,"target":34962,"byteStride":12},{"buffer":0,"byteOffset":39688,"byteLength":400,"target":34962,"byteStride":8},{"buffer":0,"byteOffset":40088,"byteLength":120,"target":34963},{"buffer":0,"byteOffset":40208,"byteLength":600,"target":34962,"byteStride":12},{"buffer":0,"byteOffset":40808,"byteLength":600,"target":34962,"byteStride":12},{"buffer":0,"byteOffset":41408,"byteLength":400,"target":34962,"byteStride":8},{"buffer":0,"byteOffset":41808,"byteLength":120,"target":34963},{"buffer":0,"byteOffset":41928,"byteLength":600,"target":34962,"byteStride":12},{"buffer":0,"byteOffset":42528,"byteLength":600,"target":34962,"byteStride":12},{"buffer":0,"byteOffset":43128,"byteLength":400,"target":34962,"byteStride":8},{"buffer":0,"byteOffset":43528,"byteLength":120,"target":34963},{"buffer":0,"byteOffset":43648,"byteLength":600,"target":34962,"byteStride":12},{"buffer":0,"byteOffset":44248,"byteLength":600,"target":34962,"byteStride":12},{"buffer":0,"byteOffset":44848,"byteLength":400,"target":34962,"byteStride":8},{"buffer":0,"byteOffset":45248,"byteLength":120,"target":34963},{"buffer":0,"byteOffset":45368,"byteLength":600,"target":34962,"byteStride":12},{"buffer":0,"byteOffset":45968,"byteLength":600,"target":34962,"byteStride":12},{"buffer":0,"byteOffset":46568,"byteLength":400,"target":34962,"byteStride":8},{"buffer":0,"byteOffset":46968,"byteLength":120,"target":34963},{"buffer":0,"byteOffset":47088,"byteLength":600,"target":34962,"byteStride":12},{"buffer":0,"byteOffset":47688,"byteLength":600,"target":34962,"byteStride":12},{"buffer":0,"byteOffset":48288,"byteLength":400,"target":34962,"byteStride":8},{"buffer":0,"byteOffset":48688,"byteLength":120,"target":34963},{"buffer":0,"byteOffset":48808,"byteLength":600,"target":34962,"byteStride":12},{"buffer":0,"byteOffset":49408,"byteLength":600,"target":34962,"byteStride":12},{"buffer":0,"byteOffset":50008,"byteLength":400,"target":34962,"byteStride":8},{"buffer":0,"byteOffset":50408,"byteLength":120,"target":34963},{"buffer":0,"byteOffset":50528,"byteLength":1800,"target":34962,"byteStride":12},{"buffer":0,"byteOffset":52328,"byteLength":1800,"target":34962,"byteStride":12},{"buffer":0,"byteOffset":54128,"byteLength":1200,"target":34962,"byteStride":8},{"buffer":0,"byteOffset":55328,"byteLength":420,"target":34963},{"buffer":0,"byteOffset":55748,"byteLength":1536,"target":34962,"byteStride":12},{"buffer":0,"byteOffset":57284,"byteLength":1536,"target":34962,"byteStride":12},{"buffer":0,"byteOffset":58820,"byteLength":1024,"target":34962,"byteStride":8},{"buffer":0,"byteOffset":59844,"byteLength":384,"target":34963},{"buffer":0,"byteOffset":60228,"byteLength":288,"target":34962,"byteStride":12},{"buffer":0,"byteOffset":60516,"byteLength":288,"target":34962,"byteStride":12},{"buffer":0,"byteOffset":60804,"byteLength":192,"target":34962,"byteStride":8},{"buffer":0,"byteOffset":60996,"byteLength":48,"target":34963}],"buffers":[{"byteLength":61044,"uri":"data:application/octet-stream;base64,"}],"accessors":[{"bufferView":0,"componentType":5126,"count":616,"max":[0.6184952259063721,2.4375,0.6184952259063721],"min":[-0.6184952259063721,-0.0026067050639539957,-0.6184952259063721],"type":"VEC3"},{"bufferView":1,"componentType":5126,"count":616,"max":[0.9997507929801941,0.9999999403953552,0.9965457320213318],"min":[-0.9997507929801941,-1,-0.9971859455108643],"type":"VEC3"},{"bufferView":2,"componentType":5126,"count":616,"max":[0.6792935132980347,0.5989412665367126],"min":[0,0],"type":"VEC2"},{"bufferView":3,"componentType":5123,"count":888,"max":[615],"min":[0],"type":"SCALAR"},{"bufferView":4,"componentType":5126,"count":240,"max":[0.6086102724075317,0.016176190227270126,0.6086102724075317],"min":[-0.6086102724075317,-0.013086812570691109,-0.6086102724075317],"type":"VEC3"},{"bufferView":5,"componentType":5126,"count":240,"max":[0.9493923187255859,0.8140163421630859,0.9493923187255859],"min":[-0.9493923187255859,-1,-0.9493923187255859],"type":"VEC3"},{"bufferView":6,"componentType":5126,"count":240,"max":[0.6635249257087708,0.5546875],"min":[0.17492812871932983,0.005564630031585693],"type":"VEC2"},{"bufferView":7,"componentType":5123,"count":360,"max":[239],"min":[0],"type":"SCALAR"},{"bufferView":8,"componentType":5126,"count":50,"max":[0.02111157774925232,0.1875,0.015625],"min":[-0.02111157774925232,0,-0.023002123460173607],"type":"VEC3"},{"bufferView":9,"componentType":5126,"count":50,"max":[0.9474103450775146,1,1],"min":[-0.9474103450775146,-1,-0.8196668028831482],"type":"VEC3"},{"bufferView":10,"componentType":5126,"count":50,"max":[0.296875,0.234375],"min":[0,0],"type":"VEC2"},{"bufferView":11,"componentType":5123,"count":60,"max":[49],"min":[0],"type":"SCALAR"},{"bufferView":12,"componentType":5126,"count":50,"max":[0.02111157774925232,0.1875,0.015625],"min":[-0.02111157774925232,0,-0.023002123460173607],"type":"VEC3"},{"bufferView":13,"componentType":5126,"count":50,"max":[0.9474103450775146,1,1],"min":[-0.9474103450775146,-1,-0.8196668028831482],"type":"VEC3"},{"bufferView":14,"componentType":5126,"count":50,"max":[0.4375,0.4453125],"min":[0.046875,0.0859375],"type":"VEC2"},{"bufferView":15,"componentType":5123,"count":60,"max":[49],"min":[0],"type":"SCALAR"},{"bufferView":16,"componentType":5126,"count":50,"max":[0.02111157774925232,0.1875,0.015625],"min":[-0.02111157774925232,0,-0.023002123460173607],"type":"VEC3"},{"bufferView":17,"componentType":5126,"count":50,"max":[0.9474103450775146,1,1],"min":[-0.9474103450775146,-1,-0.8196668028831482],"type":"VEC3"},{"bufferView":18,"componentType":5126,"count":50,"max":[0.4765625,0.4921875],"min":[0.2278296947479248,0.1171875],"type":"VEC2"},{"bufferView":19,"componentType":5123,"count":60,"max":[49],"min":[0],"type":"SCALAR"},{"bufferView":20,"componentType":5126,"count":50,"max":[0.02111157774925232,0.1875,0.023002123460173607],"min":[-0.02111157774925232,0,-0.015625],"type":"VEC3"},{"bufferView":21,"componentType":5126,"count":50,"max":[0.9474103450775146,1,0.8196668028831482],"min":[-0.9474103450775146,-1,-1],"type":"VEC3"},{"bufferView":22,"componentType":5126,"count":50,"max":[0.53125,0.4375],"min":[0.2512671947479248,0.01860940456390381],"type":"VEC2"},{"bufferView":23,"componentType":5123,"count":60,"max":[49],"min":[0],"type":"SCALAR"},{"bufferView":24,"componentType":5126,"count":50,"max":[0.02111157774925232,0.1875,0.015625],"min":[-0.02111157774925232,0,-0.023002123460173607],"type":"VEC3"},{"bufferView":25,"componentType":5126,"count":50,"max":[0.9474103450775146,1,1],"min":[-0.9474103450775146,-1,-0.8196668028831482],"type":"VEC3"},{"bufferView":26,"componentType":5126,"count":50,"max":[0.546875,0.578125],"min":[0.0234375,0.1015625],"type":"VEC2"},{"bufferView":27,"componentType":5123,"count":60,"max":[49],"min":[0],"type":"SCALAR"},{"bufferView":28,"componentType":5126,"count":50,"max":[0.02111157774925232,0.1875,0.015625],"min":[-0.02111157774925232,0,-0.023002123460173607],"type":"VEC3"},{"bufferView":29,"componentType":5126,"count":50,"max":[0.9474103450775146,1,1],"min":[-0.9474103450775146,-1,-0.8196668028831482],"type":"VEC3"},{"bufferView":30,"componentType":5126,"count":50,"max":[0.34375,0.578125],"min":[0.0703125,0.1670469045639038],"type":"VEC2"},{"bufferView":31,"componentType":5123,"count":60,"max":[49],"min":[0],"type":"SCALAR"},{"bufferView":32,"componentType":5126,"count":50,"max":[0.02111157774925232,0.1875,0.015625],"min":[-0.02111157774925232,0,-0.023002123460173607],"type":"VEC3"},{"bufferView":33,"componentType":5126,"count":50,"max":[0.9474103450775146,1,1],"min":[-0.9474103450775146,-1,-0.8196668028831482],"type":"VEC3"},{"bufferView":34,"componentType":5126,"count":50,"max":[0.5625,0.578125],"min":[0.0012671875301748514,0.3389219045639038],"type":"VEC2"},{"bufferView":35,"componentType":5123,"count":60,"max":[49],"min":[0],"type":"SCALAR"},{"bufferView":36,"componentType":5126,"count":50,"max":[0.02111157774925232,0.1875,0.023002123460173607],"min":[-0.02111157774925232,0,-0.015625],"type":"VEC3"},{"bufferView":37,"componentType":5126,"count":50,"max":[0.9474103450775146,1,0.8196668028831482],"min":[-0.9474103450775146,-1,-1],"type":"VEC3"},{"bufferView":38,"componentType":5126,"count":50,"max":[0.484375,0.5859375],"min":[0.1887671947479248,0.12017190456390381],"type":"VEC2"},{"bufferView":39,"componentType":5123,"count":60,"max":[49],"min":[0],"type":"SCALAR"},{"bufferView":40,"componentType":5126,"count":50,"max":[0.02111157774925232,0.1875,0.015625],"min":[-0.02111157774925232,0,-0.023002123460173607],"type":"VEC3"},{"bufferView":41,"componentType":5126,"count":50,"max":[0.9474103450775146,1,1],"min":[-0.9474103450775146,-1,-0.8196668028831482],"type":"VEC3"},{"bufferView":42,"componentType":5126,"count":50,"max":[0.546875,0.59375],"min":[0.1015625,0.07329690456390381],"type":"VEC2"},{"bufferView":43,"componentType":5123,"count":60,"max":[49],"min":[0],"type":"SCALAR"},{"bufferView":44,"componentType":5126,"count":50,"max":[0.02111157774925232,0.1875,0.015625],"min":[-0.02111157774925232,0,-0.023002123460173607],"type":"VEC3"},{"bufferView":45,"componentType":5126,"count":50,"max":[0.9474103450775146,1,1],"min":[-0.9474103450775146,-1,-0.8196668028831482],"type":"VEC3"},{"bufferView":46,"componentType":5126,"count":50,"max":[0.4049828052520752,0.59375],"min":[0.1171875,0.015625],"type":"VEC2"},{"bufferView":47,"componentType":5123,"count":60,"max":[49],"min":[0],"type":"SCALAR"},{"bufferView":48,"componentType":5126,"count":50,"max":[0.02111157774925232,0.1875,0.023002123460173607],"min":[-0.02111157774925232,0,-0.015625],"type":"VEC3"},{"bufferView":49,"componentType":5126,"count":50,"max":[0.9474103450775146,1,0.8196668028831482],"min":[-0.9474103450775146,-1,-1],"type":"VEC3"},{"bufferView":50,"componentType":5126,"count":50,"max":[0.5859375,0.609375],"min":[0.015625,0.09375],"type":"VEC2"},{"bufferView":51,"componentType":5123,"count":60,"max":[49],"min":[0],"type":"SCALAR"},{"bufferView":52,"componentType":5126,"count":50,"max":[0.02111157774925232,0.1875,0.023002123460173607],"min":[-0.02111157774925232,0,-0.015625],"type":"VEC3"},{"bufferView":53,"componentType":5126,"count":50,"max":[0.9474103450775146,1,0.8196668028831482],"min":[-0.9474103450775146,-1,-1],"type":"VEC3"},{"bufferView":54,"componentType":5126,"count":50,"max":[0.59375,0.609375],"min":[0.03125,0.125],"type":"VEC2"},{"bufferView":55,"componentType":5123,"count":60,"max":[49],"min":[0],"type":"SCALAR"},{"bufferView":56,"componentType":5126,"count":150,"max":[0.05143404379487038,0.5379610657691956,0.04434144124388695],"min":[-0.07556341588497162,0,-0.053950414061546326],"type":"VEC3"},{"bufferView":57,"componentType":5126,"count":150,"max":[0.9547828435897827,0.9917614459991455,1],"min":[-0.9513065814971924,-1,-0.9180545806884766],"type":"VEC3"},{"bufferView":58,"componentType":5126,"count":150,"max":[0.4342949092388153,0.6230137348175049],"min":[0,0],"type":"VEC2"},{"bufferView":59,"componentType":5123,"count":210,"max":[149],"min":[0],"type":"SCALAR"},{"bufferView":60,"componentType":5126,"count":128,"max":[0.1015625,0.008456189185380936,0.0234375],"min":[-0.1015625,-0.008456189185380936,-0.1796875],"type":"VEC3"},{"bufferView":61,"componentType":5126,"count":128,"max":[0.7345095276832581,0.6785983443260193,0.7345095276832581],"min":[-0.7345095276832581,-0.6785983443260193,-0.7345095276832581],"type":"VEC3"},{"bufferView":62,"componentType":5126,"count":128,"max":[0.6147037744522095,0.5920109152793884],"min":[0.10452109575271606,0],"type":"VEC2"},{"bufferView":63,"componentType":5123,"count":192,"max":[127],"min":[0],"type":"SCALAR"},{"bufferView":64,"componentType":5126,"count":24,"max":[0.09375,-0.0625,0.046875],"min":[-0.09375,-0.0625,-0.140625],"type":"VEC3"},{"bufferView":65,"componentType":5126,"count":24,"max":[0,1,0],"min":[0,1,0],"type":"VEC3"},{"bufferView":66,"componentType":5126,"count":24,"max":[0.078125,0.1171875],"min":[0.0546875,0.09375],"type":"VEC2"},{"bufferView":67,"componentType":5123,"count":24,"max":[23],"min":[0],"type":"SCALAR"}],"materials":[{"pbrMetallicRoughness":{"metallicFactor":0,"roughnessFactor":1,"baseColorTexture":{"index":0}},"alphaMode":"MASK","alphaCutoff":0.05,"doubleSided":true}],"textures":[{"sampler":0,"source":0,"name":"mage_tower_txt.png"}],"samplers":[{"magFilter":9728,"minFilter":9728,"wrapS":33071,"wrapT":33071}],"images":[{"mimeType":"image/png","uri":"data:image/png;base64,"}],"meshes":[{"primitives":[{"mode":4,"attributes":{"POSITION":0,"NORMAL":1,"TEXCOORD_0":2},"indices":3,"material":0}]},{"primitives":[{"mode":4,"attributes":{"POSITION":4,"NORMAL":5,"TEXCOORD_0":6},"indices":7,"material":0}]},{"primitives":[{"mode":4,"attributes":{"POSITION":8,"NORMAL":9,"TEXCOORD_0":10},"indices":11,"material":0}]},{"primitives":[{"mode":4,"attributes":{"POSITION":12,"NORMAL":13,"TEXCOORD_0":14},"indices":15,"material":0}]},{"primitives":[{"mode":4,"attributes":{"POSITION":16,"NORMAL":17,"TEXCOORD_0":18},"indices":19,"material":0}]},{"primitives":[{"mode":4,"attributes":{"POSITION":20,"NORMAL":21,"TEXCOORD_0":22},"indices":23,"material":0}]},{"primitives":[{"mode":4,"attributes":{"POSITION":24,"NORMAL":25,"TEXCOORD_0":26},"indices":27,"material":0}]},{"primitives":[{"mode":4,"attributes":{"POSITION":28,"NORMAL":29,"TEXCOORD_0":30},"indices":31,"material":0}]},{"primitives":[{"mode":4,"attributes":{"POSITION":32,"NORMAL":33,"TEXCOORD_0":34},"indices":35,"material":0}]},{"primitives":[{"mode":4,"attributes":{"POSITION":36,"NORMAL":37,"TEXCOORD_0":38},"indices":39,"material":0}]},{"primitives":[{"mode":4,"attributes":{"POSITION":40,"NORMAL":41,"TEXCOORD_0":42},"indices":43,"material":0}]},{"primitives":[{"mode":4,"attributes":{"POSITION":44,"NORMAL":45,"TEXCOORD_0":46},"indices":47,"material":0}]},{"primitives":[{"mode":4,"attributes":{"POSITION":48,"NORMAL":49,"TEXCOORD_0":50},"indices":51,"material":0}]},{"primitives":[{"mode":4,"attributes":{"POSITION":52,"NORMAL":53,"TEXCOORD_0":54},"indices":55,"material":0}]},{"primitives":[{"mode":4,"attributes":{"POSITION":56,"NORMAL":57,"TEXCOORD_0":58},"indices":59,"material":0}]},{"primitives":[{"mode":4,"attributes":{"POSITION":60,"NORMAL":61,"TEXCOORD_0":62},"indices":63,"material":0}]},{"primitives":[{"mode":4,"attributes":{"POSITION":64,"NORMAL":65,"TEXCOORD_0":66},"indices":67,"material":0}]}]}