{"asset":{"version":"2.0","generator":"Blockbench 4.10.1 glTF exporter"},"scenes":[{"nodes":[16],"name":"blockbench_export"}],"scene":0,"nodes":[{"translation":[-0.046875,-0.390625,0.359375],"name":"ground","mesh":0},{"translation":[0.046875,0.078125,-0.359375],"name":"floor2","children":[0]},{"translation":[8.953411488912545e-19,0.18750000000000003,-1.6451893610876816e-17],"name":"body"},{"rotation":[-0.5963678145322132,-0.5963678065258243,0.3799281903071582,0.3799282028746697],"translation":[0.08305787715331836,-0.04687500131708908,-0.030230595748465983],"name":"circle","mesh":1},{"translation":[0.16694212811503767,0.10937499604873274,-0.4228944042515337],"name":"eye1","children":[3]},{"rotation":[-0.5963678145322132,0.5963678065258243,-0.3799281903071582,0.3799282028746697],"translation":[-0.08305787715331836,-0.04687500131708908,-0.030230595748465983],"name":"circle","mesh":2},{"translation":[-0.16694212811503767,0.10937499604873274,-0.4228944042515337],"name":"eye2","children":[5]},{"rotation":[8.359336302316486e-9,0.6087614290087208,-0.793353340291235,-6.414342869772522e-9],"name":"circle","mesh":3},{"translation":[-0.002990585905601143,-0.07812500000000017,-0.43963532832791546],"name":"mouth2","children":[7]},{"translation":[0,0.1875,0.125],"name":"face2","children":[4,6,8]},{"rotation":[-0.21082996138694785,-0.10975113116714197,-0.44851585371312086,0.8615909386461195],"name":"sphere","mesh":4},{"translation":[0.3125,0.015625,0],"name":"1","children":[10]},{"rotation":[-0.21082996138694785,0.10975113116714197,0.44851585371312086,0.8615909386461195],"name":"sphere","mesh":5},{"rotation":[-0.35089120975828,0.2692482950921147,-0.5459815317744084,0.7115369853111158],"translation":[-0.3125,0.015625,0],"name":"2","children":[12]},{"translation":[0,-0.25,-0.3125],"name":"rocks","children":[11,13]},{"name":"tower4","children":[2,9,14]},{"children":[1,15]}],"bufferViews":[{"buffer":0,"byteOffset":0,"byteLength":1152,"target":34962,"byteStride":12},{"buffer":0,"byteOffset":1152,"byteLength":1152,"target":34962,"byteStride":12},{"buffer":0,"byteOffset":2304,"byteLength":768,"target":34962,"byteStride":8},{"buffer":0,"byteOffset":3072,"byteLength":264,"target":34963},{"buffer":0,"byteOffset":3336,"byteLength":216,"target":34962,"byteStride":12},{"buffer":0,"byteOffset":3552,"byteLength":216,"target":34962,"byteStride":12},{"buffer":0,"byteOffset":3768,"byteLength":144,"target":34962,"byteStride":8},{"buffer":0,"byteOffset":3912,"byteLength":36,"target":34963},{"buffer":0,"byteOffset":3948,"byteLength":216,"target":34962,"byteStride":12},{"buffer":0,"byteOffset":4164,"byteLength":216,"target":34962,"byteStride":12},{"buffer":0,"byteOffset":4380,"byteLength":144,"target":34962,"byteStride":8},{"buffer":0,"byteOffset":4524,"byteLength":36,"target":34963},{"buffer":0,"byteOffset":4560,"byteLength":216,"target":34962,"byteStride":12},{"buffer":0,"byteOffset":4776,"byteLength":216,"target":34962,"byteStride":12},{"buffer":0,"byteOffset":4992,"byteLength":144,"target":34962,"byteStride":8},{"buffer":0,"byteOffset":5136,"byteLength":36,"target":34963},{"buffer":0,"byteOffset":5172,"byteLength":288,"target":34962,"byteStride":12},{"buffer":0,"byteOffset":5460,"byteLength":288,"target":34962,"byteStride":12},{"buffer":0,"byteOffset":5748,"byteLength":192,"target":34962,"byteStride":8},{"buffer":0,"byteOffset":5940,"byteLength":48,"target":34963},{"buffer":0,"byteOffset":5988,"byteLength":288,"target":34962,"byteStride":12},{"buffer":0,"byteOffset":6276,"byteLength":288,"target":34962,"byteStride":12},{"buffer":0,"byteOffset":6564,"byteLength":192,"target":34962,"byteStride":8},{"buffer":0,"byteOffset":6756,"byteLength":48,"target":34963},{"buffer":0,"byteOffset":6804,"byteLength":20},{"buffer":0,"byteOffset":6824,"byteLength":80},{"buffer":0,"byteOffset":6904,"byteLength":28},{"buffer":0,"byteOffset":6932,"byteLength":112},{"buffer":0,"byteOffset":7044,"byteLength":20},{"buffer":0,"byteOffset":7064,"byteLength":80},{"buffer":0,"byteOffset":7144,"byteLength":20},{"buffer":0,"byteOffset":7164,"byteLength":60},{"buffer":0,"byteOffset":7224,"byteLength":16},{"buffer":0,"byteOffset":7240,"byteLength":48},{"buffer":0,"byteOffset":7288,"byteLength":16},{"buffer":0,"byteOffset":7304,"byteLength":64},{"buffer":0,"byteOffset":7368,"byteLength":16},{"buffer":0,"byteOffset":7384,"byteLength":48},{"buffer":0,"byteOffset":7432,"byteLength":24},{"buffer":0,"byteOffset":7456,"byteLength":96},{"buffer":0,"byteOffset":7552,"byteLength":24},{"buffer":0,"byteOffset":7576,"byteLength":72},{"buffer":0,"byteOffset":7648,"byteLength":24},{"buffer":0,"byteOffset":7672,"byteLength":72},{"buffer":0,"byteOffset":7744,"byteLength":28},{"buffer":0,"byteOffset":7772,"byteLength":84},{"buffer":0,"byteOffset":7856,"byteLength":28},{"buffer":0,"byteOffset":7884,"byteLength":84},{"buffer":0,"byteOffset":7968,"byteLength":28},{"buffer":0,"byteOffset":7996,"byteLength":84},{"buffer":0,"byteOffset":8080,"byteLength":28},{"buffer":0,"byteOffset":8108,"byteLength":84},{"buffer":0,"byteOffset":8192,"byteLength":16},{"buffer":0,"byteOffset":8208,"byteLength":48},{"buffer":0,"byteOffset":8256,"byteLength":12},{"buffer":0,"byteOffset":8268,"byteLength":48},{"buffer":0,"byteOffset":8316,"byteLength":12},{"buffer":0,"byteOffset":8328,"byteLength":48}],"buffers":[{"byteLength":8376,"uri":"data:application/octet-stream;base64,"}],"accessors":[{"bufferView":0,"componentType":5126,"count":96,"max":[0.5,0.3125,0.5],"min":[-0.5,-0.125,-0.5],"type":"VEC3"},{"bufferView":1,"componentType":5126,"count":96,"max":[1,1,1],"min":[-1,-1,-1],"type":"VEC3"},{"bufferView":2,"componentType":5126,"count":96,"max":[0.5711888670921326,0.484375],"min":[0,0],"type":"VEC2"},{"bufferView":3,"componentType":5123,"count":132,"max":[95],"min":[0],"type":"SCALAR"},{"bufferView":4,"componentType":5126,"count":18,"max":[0.19121256470680237,-0.0625,0.1875],"min":[-0.09746256470680237,-0.0625,-0.0625],"type":"VEC3"},{"bufferView":5,"componentType":5126,"count":18,"max":[0,1,0],"min":[0,1,0],"type":"VEC3"},{"bufferView":6,"componentType":5126,"count":18,"max":[0.45014688372612,0.421875],"min":[0.37797811627388,0.359375],"type":"VEC2"},{"bufferView":7,"componentType":5123,"count":18,"max":[17],"min":[0],"type":"SCALAR"},{"bufferView":8,"componentType":5126,"count":18,"max":[0.09746256470680237,-0.0625,0.1875],"min":[-0.19121256470680237,-0.0625,-0.0625],"type":"VEC3"},{"bufferView":9,"componentType":5126,"count":18,"max":[0,1,0],"min":[0,1,0],"type":"VEC3"},{"bufferView":10,"componentType":5126,"count":18,"max":[0.45014688372612,0.421875],"min":[0.37797811627388,0.359375],"type":"VEC2"},{"bufferView":11,"componentType":5123,"count":18,"max":[17],"min":[0],"type":"SCALAR"},{"bufferView":12,"componentType":5126,"count":18,"max":[0.06621256470680237,0,0.046875],"min":[-0.06621256470680237,0,-0.046875],"type":"VEC3"},{"bufferView":13,"componentType":5126,"count":18,"max":[0,1,0],"min":[0,1,0],"type":"VEC3"},{"bufferView":14,"componentType":5126,"count":18,"max":[0.2274906188249588,0.0859375],"min":[0.1943843811750412,0.0625],"type":"VEC2"},{"bufferView":15,"componentType":5123,"count":18,"max":[17],"min":[0],"type":"SCALAR"},{"bufferView":16,"componentType":5126,"count":24,"max":[0.125,0.125,0.125],"min":[-0.125,-0.125,-0.125],"type":"VEC3"},{"bufferView":17,"componentType":5126,"count":24,"max":[0.7071067690849304,0.7071067690849304,0.7071067690849304],"min":[-0.7071067690849304,-0.7071067690849304,-0.7071067690849304],"type":"VEC3"},{"bufferView":18,"componentType":5126,"count":24,"max":[0.53125,0.48169374465942383],"min":[0.359375,0.359375],"type":"VEC2"},{"bufferView":19,"componentType":5123,"count":24,"max":[23],"min":[0],"type":"SCALAR"},{"bufferView":20,"componentType":5126,"count":24,"max":[0.125,0.125,0.125],"min":[-0.125,-0.125,-0.125],"type":"VEC3"},{"bufferView":21,"componentType":5126,"count":24,"max":[0.7071067690849304,0.7071067690849304,0.7071067690849304],"min":[-0.7071067690849304,-0.7071067690849304,-0.7071067690849304],"type":"VEC3"},{"bufferView":22,"componentType":5126,"count":24,"max":[0.53125,0.48169374465942383],"min":[0.359375,0.359375],"type":"VEC2"},{"bufferView":23,"componentType":5123,"count":24,"max":[23],"min":[0],"type":"SCALAR"},{"bufferView":24,"componentType":5126,"count":5,"max":[4.5],"min":[0],"type":"SCALAR"},{"bufferView":25,"componentType":5126,"count":5,"max":[0,0,0.051115863025188446,1],"min":[0,0,-0.04361938685178757,0.9986927509307861],"type":"VEC4"},{"bufferView":26,"componentType":5126,"count":7,"max":[4.5],"min":[0],"type":"SCALAR"},{"bufferView":27,"componentType":5126,"count":7,"max":[0,0.30070579051971436,0,1],"min":[0,-0.30070579051971436,0,0.9537169337272644],"type":"VEC4"},{"bufferView":28,"componentType":5126,"count":5,"max":[1],"min":[0],"type":"SCALAR"},{"bufferView":29,"componentType":5126,"count":5,"max":[0.15212339162826538,0,0,1],"min":[-0.10886687785387039,0,0,0.9883615374565125],"type":"VEC4"},{"bufferView":30,"componentType":5126,"count":5,"max":[1],"min":[0],"type":"SCALAR"},{"bufferView":31,"componentType":5126,"count":5,"max":[1,1.2999999523162842,1],"min":[1,0.800000011920929,1],"type":"VEC3"},{"bufferView":32,"componentType":5126,"count":4,"max":[1],"min":[0],"type":"SCALAR"},{"bufferView":33,"componentType":5126,"count":4,"max":[1.5,1.5,1],"min":[0.5,0.5,1],"type":"VEC3"},{"bufferView":34,"componentType":5126,"count":4,"max":[1],"min":[0],"type":"SCALAR"},{"bufferView":35,"componentType":5126,"count":4,"max":[0,0,0,1],"min":[-0.2164396196603775,0,0,0.9762960076332092],"type":"VEC4"},{"bufferView":36,"componentType":5126,"count":4,"max":[1],"min":[0],"type":"SCALAR"},{"bufferView":37,"componentType":5126,"count":4,"max":[1,1,1],"min":[1,0.4000000059604645,1],"type":"VEC3"},{"bufferView":38,"componentType":5126,"count":6,"max":[1],"min":[0],"type":"SCALAR"},{"bufferView":39,"componentType":5126,"count":6,"max":[0,0.1736481785774231,0,1],"min":[0,-0.1736481785774231,0,0.9848077297210693],"type":"VEC4"},{"bufferView":40,"componentType":5126,"count":6,"max":[1],"min":[0],"type":"SCALAR"},{"bufferView":41,"componentType":5126,"count":6,"max":[1.2999999523162842,1.2999999523162842,1],"min":[0.699999988079071,0.699999988079071,1],"type":"VEC3"},{"bufferView":42,"componentType":5126,"count":6,"max":[1],"min":[0],"type":"SCALAR"},{"bufferView":43,"componentType":5126,"count":6,"max":[1.2999999523162842,1.2999999523162842,1],"min":[0.699999988079071,0.699999988079071,1],"type":"VEC3"},{"bufferView":44,"componentType":5126,"count":7,"max":[1],"min":[0],"type":"SCALAR"},{"bufferView":45,"componentType":5126,"count":7,"max":[1,1,1],"min":[1,0.30000001192092896,1],"type":"VEC3"},{"bufferView":46,"componentType":5126,"count":7,"max":[1],"min":[0],"type":"SCALAR"},{"bufferView":47,"componentType":5126,"count":7,"max":[1,1,1],"min":[1,0.30000001192092896,1],"type":"VEC3"},{"bufferView":48,"componentType":5126,"count":7,"max":[1],"min":[0],"type":"SCALAR"},{"bufferView":49,"componentType":5126,"count":7,"max":[2,1,1],"min":[1,0.30000001192092896,1],"type":"VEC3"},{"bufferView":50,"componentType":5126,"count":7,"max":[0.9583333134651184],"min":[0],"type":"SCALAR"},{"bufferView":51,"componentType":5126,"count":7,"max":[1.100000023841858,1.100000023841858,1.100000023841858],"min":[0.8999999761581421,1,1],"type":"VEC3"},{"bufferView":52,"componentType":5126,"count":4,"max":[1],"min":[0],"type":"SCALAR"},{"bufferView":53,"componentType":5126,"count":4,"max":[0,0.5,-0.0625],"min":[0,-0.25,-0.625],"type":"VEC3"},{"bufferView":54,"componentType":5126,"count":3,"max":[0.75],"min":[0],"type":"SCALAR"},{"bufferView":55,"componentType":5126,"count":3,"max":[0.06526309251785278,0,0.4957224428653717,1],"min":[0,-0.11303900182247162,0,0.8586164116859436],"type":"VEC4"},{"bufferView":56,"componentType":5126,"count":3,"max":[0.75],"min":[0],"type":"SCALAR"},{"bufferView":57,"componentType":5126,"count":3,"max":[-0.0971282348036766,0.3834501802921295,-0.4908095598220825,0.7762976288795471],"min":[-0.35089120268821716,0.2692483067512512,-0.5459815263748169,0.7115370035171509],"type":"VEC4"}],"materials":[{"pbrMetallicRoughness":{"metallicFactor":0,"roughnessFactor":1,"baseColorTexture":{"index":0}},"alphaMode":"MASK","alphaCutoff":0.05,"doubleSided":true},{"pbrMetallicRoughness":{"metallicFactor":0,"roughnessFactor":1,"baseColorTexture":{"index":1}},"alphaMode":"MASK","alphaCutoff":0.05,"doubleSided":true}],"textures":[{"sampler":0,"source":0,"name":"ground_rock_txt.png"},{"sampler":1,"source":1,"name":"rock_tower_txt.png"}],"samplers":[{"magFilter":9728,"minFilter":9728,"wrapS":33071,"wrapT":33071},{"magFilter":9728,"minFilter":9728,"wrapS":33071,"wrapT":33071}],"images":[{"mimeType":"image/png","uri":"data:image/png;base64,"},{"mimeType":"image/png","uri":"data:image/png;base64,"}],"meshes":[{"primitives":[{"mode":4,"attributes":{"POSITION":0,"NORMAL":1,"TEXCOORD_0":2},"indices":3,"material":0}]},{"primitives":[{"mode":4,"attributes":{"POSITION":4,"NORMAL":5,"TEXCOORD_0":6},"indices":7,"material":1}]},{"primitives":[{"mode":4,"attributes":{"POSITION":8,"NORMAL":9,"TEXCOORD_0":10},"indices":11,"material":1}]},{"primitives":[{"mode":4,"attributes":{"POSITION":12,"NORMAL":13,"TEXCOORD_0":14},"indices":15,"material":1}]},{"primitives":[{"mode":4,"attributes":{"POSITION":16,"NORMAL":17,"TEXCOORD_0":18},"indices":19,"material":1}]},{"primitives":[{"mode":4,"attributes":{"POSITION":20,"NORMAL":21,"TEXCOORD_0":22},"indices":23,"material":1}]}],"animations":[{"name":"idle","samplers":[{"input":24,"output":25,"interpolation":"LINEAR"},{"input":26,"output":27,"interpolation":"LINEAR"}],"channels":[{"sampler":0,"target":{"path":"rotation"}},{"sampler":1,"target":{"path":"rotation"}}]},{"name":"attack","samplers":[{"input":28,"output":29,"interpolation":"LINEAR"},{"input":30,"output":31,"interpolation":"LINEAR"},{"input":32,"output":33,"interpolation":"LINEAR"},{"input":34,"output":35,"interpolation":"LINEAR"},{"input":36,"output":37,"interpolation":"LINEAR"}],"channels":[{"sampler":0,"target":{"path":"rotation"}},{"sampler":1,"target":{"path":"scale"}},{"sampler":2,"target":{"path":"scale"}},{"sampler":3,"target":{"path":"rotation"}},{"sampler":4,"target":{"path":"scale"}}]},{"name":"rock_idle","samplers":[{"input":38,"output":39,"interpolation":"LINEAR"},{"input":40,"output":41,"interpolation":"LINEAR"},{"input":42,"output":43,"interpolation":"LINEAR"}],"channels":[{"sampler":0,"target":{"node":9,"path":"rotation"}},{"sampler":1,"target":{"node":4,"path":"scale"}},{"sampler":2,"target":{"node":6,"path":"scale"}}]},{"name":"rock_attack","samplers":[{"input":44,"output":45,"interpolation":"LINEAR"},{"input":46,"output":47,"interpolation":"LINEAR"},{"input":48,"output":49,"interpolation":"LINEAR"},{"input":50,"output":51,"interpolation":"LINEAR"},{"input":52,"output":53,"interpolation":"LINEAR"},{"input":54,"output":55,"interpolation":"LINEAR"},{"input":56,"output":57,"interpolation":"LINEAR"}],"channels":[{"sampler":0,"target":{"node":4,"path":"scale"}},{"sampler":1,"target":{"node":6,"path":"scale"}},{"sampler":2,"target":{"node":8,"path":"scale"}},{"sampler":3,"target":{"node":2,"path":"scale"}},{"sampler":4,"target":{"node":14,"path":"translation"}},{"sampler":5,"target":{"node":11,"path":"rotation"}},{"sampler":6,"target":{"node":13,"path":"rotation"}}]}]}