{"asset":{"version":"2.0","generator":"Blockbench 4.10.1 glTF exporter"},"scenes":[{"nodes":[4],"name":"blockbench_export"}],"scene":0,"nodes":[{"name":"sphere","mesh":0},{"translation":[-0.625,0,0],"name":"sphere","mesh":1},{"translation":[0.3125,-0.171875,0.3125],"name":"3","children":[0,1]},{"translation":[0,0.1875,-0.3125],"name":"projectile2","children":[2]},{"children":[3]}],"bufferViews":[{"buffer":0,"byteOffset":0,"byteLength":288,"target":34962,"byteStride":12},{"buffer":0,"byteOffset":288,"byteLength":288,"target":34962,"byteStride":12},{"buffer":0,"byteOffset":576,"byteLength":192,"target":34962,"byteStride":8},{"buffer":0,"byteOffset":768,"byteLength":48,"target":34963},{"buffer":0,"byteOffset":816,"byteLength":288,"target":34962,"byteStride":12},{"buffer":0,"byteOffset":1104,"byteLength":288,"target":34962,"byteStride":12},{"buffer":0,"byteOffset":1392,"byteLength":192,"target":34962,"byteStride":8},{"buffer":0,"byteOffset":1584,"byteLength":48,"target":34963}],"buffers":[{"byteLength":1632,"uri":"data:application/octet-stream;base64,"}],"accessors":[{"bufferView":0,"componentType":5126,"count":24,"max":[0.125,0.125,0.125],"min":[-0.125,-0.125,-0.125],"type":"VEC3"},{"bufferView":1,"componentType":5126,"count":24,"max":[0.7071067690849304,0.7071067690849304,0.7071067690849304],"min":[-0.7071067690849304,-0.7071067690849304,-0.7071067690849304],"type":"VEC3"},{"bufferView":2,"componentType":5126,"count":24,"max":[0.53125,0.48169374465942383],"min":[0.359375,0.359375],"type":"VEC2"},{"bufferView":3,"componentType":5123,"count":24,"max":[23],"min":[0],"type":"SCALAR"},{"bufferView":4,"componentType":5126,"count":24,"max":[0.125,0.125,0.125],"min":[-0.125,-0.125,-0.125],"type":"VEC3"},{"bufferView":5,"componentType":5126,"count":24,"max":[0.7071067690849304,0.7071067690849304,0.7071067690849304],"min":[-0.7071067690849304,-0.7071067690849304,-0.7071067690849304],"type":"VEC3"},{"bufferView":6,"componentType":5126,"count":24,"max":[0.53125,0.48169374465942383],"min":[0.359375,0.359375],"type":"VEC2"},{"bufferView":7,"componentType":5123,"count":24,"max":[23],"min":[0],"type":"SCALAR"}],"materials":[{"pbrMetallicRoughness":{"metallicFactor":0,"roughnessFactor":1,"baseColorTexture":{"index":0}},"alphaMode":"MASK","alphaCutoff":0.05,"doubleSided":true}],"textures":[{"sampler":0,"source":0,"name":"rock_tower_txt.png"}],"samplers":[{"magFilter":9728,"minFilter":9728,"wrapS":33071,"wrapT":33071}],"images":[{"mimeType":"image/png","uri":"data:image/png;base64,"}],"meshes":[{"primitives":[{"mode":4,"attributes":{"POSITION":0,"NORMAL":1,"TEXCOORD_0":2},"indices":3,"material":0}]},{"primitives":[{"mode":4,"attributes":{"POSITION":4,"NORMAL":5,"TEXCOORD_0":6},"indices":7,"material":0}]}]}