{"asset":{"version":"2.0","generator":"Blockbench 4.10.1 glTF exporter"},"scenes":[{"nodes":[2],"name":"blockbench_export"}],"scene":0,"nodes":[{"rotation":[0.004627970019159867,0.7070916361360112,-0.707091636136012,0.004627970019159867],"name":"seed_bullet","mesh":0},{"name":"projectile_1","children":[0]},{"children":[1]}],"bufferViews":[{"buffer":0,"byteOffset":0,"byteLength":600,"target":34962,"byteStride":12},{"buffer":0,"byteOffset":600,"byteLength":600,"target":34962,"byteStride":12},{"buffer":0,"byteOffset":1200,"byteLength":400,"target":34962,"byteStride":8},{"buffer":0,"byteOffset":1600,"byteLength":120,"target":34963},{"buffer":0,"byteOffset":1720,"byteLength":20},{"buffer":0,"byteOffset":1740,"byteLength":80},{"buffer":0,"byteOffset":1820,"byteLength":28},{"buffer":0,"byteOffset":1848,"byteLength":112},{"buffer":0,"byteOffset":1960,"byteLength":20},{"buffer":0,"byteOffset":1980,"byteLength":80},{"buffer":0,"byteOffset":2060,"byteLength":20},{"buffer":0,"byteOffset":2080,"byteLength":60},{"buffer":0,"byteOffset":2140,"byteLength":16},{"buffer":0,"byteOffset":2156,"byteLength":48},{"buffer":0,"byteOffset":2204,"byteLength":16},{"buffer":0,"byteOffset":2220,"byteLength":64},{"buffer":0,"byteOffset":2284,"byteLength":16},{"buffer":0,"byteOffset":2300,"byteLength":48}],"buffers":[{"byteLength":2348,"uri":"data:application/octet-stream;base64,"}],"accessors":[{"bufferView":0,"componentType":5126,"count":50,"max":[0.08038423955440521,0.1875,0.061378177255392075],"min":[-0.08038423955440521,-0.125,-0.08693328499794006],"type":"VEC3"},{"bufferView":1,"componentType":5126,"count":50,"max":[0.9482161402702332,0.4788135886192322,1],"min":[-0.9482161402702332,-0.7371190190315247,-0.8174077868461609],"type":"VEC3"},{"bufferView":2,"componentType":5126,"count":50,"max":[0.6875,0.8125],"min":[0.012818749994039536,0],"type":"VEC2"},{"bufferView":3,"componentType":5123,"count":60,"max":[49],"min":[0],"type":"SCALAR"},{"bufferView":4,"componentType":5126,"count":5,"max":[4.5],"min":[0],"type":"SCALAR"},{"bufferView":5,"componentType":5126,"count":5,"max":[0,0,0.051115863025188446,1],"min":[0,0,-0.04361938685178757,0.9986927509307861],"type":"VEC4"},{"bufferView":6,"componentType":5126,"count":7,"max":[4.5],"min":[0],"type":"SCALAR"},{"bufferView":7,"componentType":5126,"count":7,"max":[0,0.30070579051971436,0,1],"min":[0,-0.30070579051971436,0,0.9537169337272644],"type":"VEC4"},{"bufferView":8,"componentType":5126,"count":5,"max":[1],"min":[0],"type":"SCALAR"},{"bufferView":9,"componentType":5126,"count":5,"max":[0.15212339162826538,0,0,1],"min":[-0.10886687785387039,0,0,0.9883615374565125],"type":"VEC4"},{"bufferView":10,"componentType":5126,"count":5,"max":[1],"min":[0],"type":"SCALAR"},{"bufferView":11,"componentType":5126,"count":5,"max":[1,1.2999999523162842,1],"min":[1,0.800000011920929,1],"type":"VEC3"},{"bufferView":12,"componentType":5126,"count":4,"max":[1],"min":[0],"type":"SCALAR"},{"bufferView":13,"componentType":5126,"count":4,"max":[1.5,1.5,1],"min":[0.5,0.5,1],"type":"VEC3"},{"bufferView":14,"componentType":5126,"count":4,"max":[1],"min":[0],"type":"SCALAR"},{"bufferView":15,"componentType":5126,"count":4,"max":[0,0,0,1],"min":[-0.2164396196603775,0,0,0.9762960076332092],"type":"VEC4"},{"bufferView":16,"componentType":5126,"count":4,"max":[1],"min":[0],"type":"SCALAR"},{"bufferView":17,"componentType":5126,"count":4,"max":[1,1,1],"min":[1,0.4000000059604645,1],"type":"VEC3"}],"materials":[{"pbrMetallicRoughness":{"metallicFactor":0,"roughnessFactor":1,"baseColorTexture":{"index":0}},"alphaMode":"MASK","alphaCutoff":0.05,"doubleSided":true}],"textures":[{"sampler":0,"source":0,"name":"seed_bullet_txt"}],"samplers":[{"magFilter":9728,"minFilter":9728,"wrapS":33071,"wrapT":33071}],"images":[{"mimeType":"image/png","uri":"data:image/png;base64,"}],"meshes":[{"primitives":[{"mode":4,"attributes":{"POSITION":0,"NORMAL":1,"TEXCOORD_0":2},"indices":3,"material":0}]}],"animations":[{"name":"idle","samplers":[{"input":4,"output":5,"interpolation":"LINEAR"},{"input":6,"output":7,"interpolation":"LINEAR"}],"channels":[{"sampler":0,"target":{"path":"rotation"}},{"sampler":1,"target":{"path":"rotation"}}]},{"name":"attack","samplers":[{"input":8,"output":9,"interpolation":"LINEAR"},{"input":10,"output":11,"interpolation":"LINEAR"},{"input":12,"output":13,"interpolation":"LINEAR"},{"input":14,"output":15,"interpolation":"LINEAR"},{"input":16,"output":17,"interpolation":"LINEAR"}],"channels":[{"sampler":0,"target":{"path":"rotation"}},{"sampler":1,"target":{"path":"scale"}},{"sampler":2,"target":{"path":"scale"}},{"sampler":3,"target":{"path":"rotation"}},{"sampler":4,"target":{"path":"scale"}}]}]}