{"asset":{"version":"2.0","generator":"Blockbench 4.10.1 glTF exporter"},"scenes":[{"nodes":[16],"name":"blockbench_export"}],"scene":0,"nodes":[{"translation":[0.1875,0.0625,-0.25],"name":"cuboid","mesh":0},{"rotation":[0.38268343236508967,0,0,0.9238795325112868],"name":"cuboid","mesh":1},{"rotation":[0.38268343236508967,0,0,0.9238795325112868],"name":"cuboid","mesh":2},{"translation":[-0.1875,-0.125,0.25],"name":"podium_1","children":[0,1,2]},{"translation":[-0.25,-0.84375,0],"name":"cylinder","mesh":3},{"translation":[-0.25,0.75,0],"name":"cone","mesh":4},{"rotation":[0,-0.32143946530316175,0,0.9469301294951056],"translation":[-0.25,0.5625,0],"name":"cone","mesh":5},{"translation":[-0.234375,-1.15625,0.04687500000000003],"name":"ground","mesh":6},{"rotation":[0.3401104237611179,0.5514616007265516,0.4425947270216824,0.6199394407405812],"translation":[0,-0.765625,0.375],"name":"grass1","mesh":7},{"rotation":[0.5429002055921501,0.7179306286080407,0.23120939216130304,0.3692928326556929],"translation":[0.125,-0.765625,0.06250000000000003],"name":"grass2","mesh":8},{"rotation":[0.5072459500742806,0.6232337693000165,0.32649736787172656,0.4976752793842272],"translation":[-0.4375,-0.765625,0.375],"name":"grass3","mesh":9},{"rotation":[0.34771741776898074,0.5069720529296163,0.487852641656684,0.6197352135847997],"translation":[-0.5625,-0.765625,-0.12499999999999997],"name":"grass4","mesh":10},{"rotation":[0.5284714551199229,0.636882204011898,0.29900153952115116,0.47507584520827795],"translation":[-0.5,-0.765625,0.12500000000000003],"name":"grass5","mesh":11},{"rotation":[0.5678660498338953,0.660518376205298,0.24235580685881747,0.42720871599602905],"translation":[0.0625,-0.765625,-0.3125],"name":"grass6","mesh":12},{"rotation":[0.48505487353269755,0.6083989736859797,0.35337168992566304,0.5193273603798538],"translation":[-0.1875,-0.765625,-0.3125],"name":"grass7","mesh":13},{"translation":[0.234375,0.84375,-0.04687500000000003],"name":"tower2","children":[3,4,5,6,7,8,9,10,11,12,13,14]},{"children":[15]}],"bufferViews":[{"buffer":0,"byteOffset":0,"byteLength":288,"target":34962,"byteStride":12},{"buffer":0,"byteOffset":288,"byteLength":288,"target":34962,"byteStride":12},{"buffer":0,"byteOffset":576,"byteLength":192,"target":34962,"byteStride":8},{"buffer":0,"byteOffset":768,"byteLength":72,"target":34963},{"buffer":0,"byteOffset":840,"byteLength":288,"target":34962,"byteStride":12},{"buffer":0,"byteOffset":1128,"byteLength":288,"target":34962,"byteStride":12},{"buffer":0,"byteOffset":1416,"byteLength":192,"target":34962,"byteStride":8},{"buffer":0,"byteOffset":1608,"byteLength":72,"target":34963},{"buffer":0,"byteOffset":1680,"byteLength":288,"target":34962,"byteStride":12},{"buffer":0,"byteOffset":1968,"byteLength":288,"target":34962,"byteStride":12},{"buffer":0,"byteOffset":2256,"byteLength":192,"target":34962,"byteStride":8},{"buffer":0,"byteOffset":2448,"byteLength":72,"target":34963},{"buffer":0,"byteOffset":2520,"byteLength":960,"target":34962,"byteStride":12},{"buffer":0,"byteOffset":3480,"byteLength":960,"target":34962,"byteStride":12},{"buffer":0,"byteOffset":4440,"byteLength":640,"target":34962,"byteStride":8},{"buffer":0,"byteOffset":5080,"byteLength":192,"target":34963},{"buffer":0,"byteOffset":5272,"byteLength":432,"target":34962,"byteStride":12},{"buffer":0,"byteOffset":5704,"byteLength":432,"target":34962,"byteStride":12},{"buffer":0,"byteOffset":6136,"byteLength":288,"target":34962,"byteStride":8},{"buffer":0,"byteOffset":6424,"byteLength":72,"target":34963},{"buffer":0,"byteOffset":6496,"byteLength":432,"target":34962,"byteStride":12},{"buffer":0,"byteOffset":6928,"byteLength":432,"target":34962,"byteStride":12},{"buffer":0,"byteOffset":7360,"byteLength":288,"target":34962,"byteStride":8},{"buffer":0,"byteOffset":7648,"byteLength":72,"target":34963},{"buffer":0,"byteOffset":7720,"byteLength":1152,"target":34962,"byteStride":12},{"buffer":0,"byteOffset":8872,"byteLength":1152,"target":34962,"byteStride":12},{"buffer":0,"byteOffset":10024,"byteLength":768,"target":34962,"byteStride":8},{"buffer":0,"byteOffset":10792,"byteLength":264,"target":34963},{"buffer":0,"byteOffset":11056,"byteLength":48,"target":34962,"byteStride":12},{"buffer":0,"byteOffset":11104,"byteLength":48,"target":34962,"byteStride":12},{"buffer":0,"byteOffset":11152,"byteLength":32,"target":34962,"byteStride":8},{"buffer":0,"byteOffset":11184,"byteLength":12,"target":34963},{"buffer":0,"byteOffset":11196,"byteLength":48,"target":34962,"byteStride":12},{"buffer":0,"byteOffset":11244,"byteLength":48,"target":34962,"byteStride":12},{"buffer":0,"byteOffset":11292,"byteLength":32,"target":34962,"byteStride":8},{"buffer":0,"byteOffset":11324,"byteLength":12,"target":34963},{"buffer":0,"byteOffset":11336,"byteLength":48,"target":34962,"byteStride":12},{"buffer":0,"byteOffset":11384,"byteLength":48,"target":34962,"byteStride":12},{"buffer":0,"byteOffset":11432,"byteLength":32,"target":34962,"byteStride":8},{"buffer":0,"byteOffset":11464,"byteLength":12,"target":34963},{"buffer":0,"byteOffset":11476,"byteLength":48,"target":34962,"byteStride":12},{"buffer":0,"byteOffset":11524,"byteLength":48,"target":34962,"byteStride":12},{"buffer":0,"byteOffset":11572,"byteLength":32,"target":34962,"byteStride":8},{"buffer":0,"byteOffset":11604,"byteLength":12,"target":34963},{"buffer":0,"byteOffset":11616,"byteLength":48,"target":34962,"byteStride":12},{"buffer":0,"byteOffset":11664,"byteLength":48,"target":34962,"byteStride":12},{"buffer":0,"byteOffset":11712,"byteLength":32,"target":34962,"byteStride":8},{"buffer":0,"byteOffset":11744,"byteLength":12,"target":34963},{"buffer":0,"byteOffset":11756,"byteLength":48,"target":34962,"byteStride":12},{"buffer":0,"byteOffset":11804,"byteLength":48,"target":34962,"byteStride":12},{"buffer":0,"byteOffset":11852,"byteLength":32,"target":34962,"byteStride":8},{"buffer":0,"byteOffset":11884,"byteLength":12,"target":34963},{"buffer":0,"byteOffset":11896,"byteLength":48,"target":34962,"byteStride":12},{"buffer":0,"byteOffset":11944,"byteLength":48,"target":34962,"byteStride":12},{"buffer":0,"byteOffset":11992,"byteLength":32,"target":34962,"byteStride":8},{"buffer":0,"byteOffset":12024,"byteLength":12,"target":34963}],"buffers":[{"byteLength":12036,"uri":"data:application/octet-stream;base64,"}],"accessors":[{"bufferView":0,"componentType":5126,"count":24,"max":[-0.09375,0.0625,0.46875],"min":[-0.40625,0,-0.03125],"type":"VEC3"},{"bufferView":1,"componentType":5126,"count":24,"max":[0.9922778606414795,1,1],"min":[-0.9922778606414795,-1,-1],"type":"VEC3"},{"bufferView":2,"componentType":5126,"count":24,"max":[0.4217241704463959,0.3862059712409973],"min":[0,0],"type":"VEC2"},{"bufferView":3,"componentType":5123,"count":36,"max":[23],"min":[0],"type":"SCALAR"},{"bufferView":4,"componentType":5126,"count":24,"max":[0.03125,0.125,0.03125],"min":[-0.03125,-0.25,-0.03125],"type":"VEC3"},{"bufferView":5,"componentType":5126,"count":24,"max":[1,1,1],"min":[-1,-1,-1],"type":"VEC3"},{"bufferView":6,"componentType":5126,"count":24,"max":[0.3203125,0.359375],"min":[0,0.015625],"type":"VEC2"},{"bufferView":7,"componentType":5123,"count":36,"max":[23],"min":[0],"type":"SCALAR"},{"bufferView":8,"componentType":5126,"count":24,"max":[-0.09375,0.125,0.03125],"min":[-0.15625,-0.25,-0.03125],"type":"VEC3"},{"bufferView":9,"componentType":5126,"count":24,"max":[1,1,1],"min":[-1,-1,-1],"type":"VEC3"},{"bufferView":10,"componentType":5126,"count":24,"max":[0.40625,0.390625],"min":[0,0.078125],"type":"VEC2"},{"bufferView":11,"componentType":5123,"count":36,"max":[23],"min":[0],"type":"SCALAR"},{"bufferView":12,"componentType":5126,"count":80,"max":[0.15625,1.5625,0.15625],"min":[-0.15625,0,-0.15625],"type":"VEC3"},{"bufferView":13,"componentType":5126,"count":80,"max":[1,1,1],"min":[-1,-1,-1],"type":"VEC3"},{"bufferView":14,"componentType":5126,"count":80,"max":[0.40625,0.609375],"min":[0.0859375,0.2578125],"type":"VEC2"},{"bufferView":15,"componentType":5123,"count":96,"max":[79],"min":[0],"type":"SCALAR"},{"bufferView":16,"componentType":5126,"count":36,"max":[0.6182690262794495,0.75,0.53125],"min":[-0.6182690262794495,0,-0.53125],"type":"VEC3"},{"bufferView":17,"componentType":5126,"count":36,"max":[0.703915536403656,0.5802789330482483,0.8160244822502136],"min":[-0.703915536403656,-1,-0.8160244822502136],"type":"VEC3"},{"bufferView":18,"componentType":5126,"count":36,"max":[0.359375,0.4130822420120239],"min":[0,0],"type":"VEC2"},{"bufferView":19,"componentType":5123,"count":36,"max":[35],"min":[0],"type":"SCALAR"},{"bufferView":20,"componentType":5126,"count":36,"max":[0.6495190262794495,0.75,0.5625],"min":[-0.6495190262794495,0,-0.5625],"type":"VEC3"},{"bufferView":21,"componentType":5126,"count":36,"max":[0.6928203105926514,0.6000000238418579,0.800000011920929],"min":[-0.6928203105926514,-1,-0.800000011920929],"type":"VEC3"},{"bufferView":22,"componentType":5126,"count":36,"max":[0.4296875,0.4833947420120239],"min":[0,0.0390625],"type":"VEC2"},{"bufferView":23,"componentType":5123,"count":36,"max":[35],"min":[0],"type":"SCALAR"},{"bufferView":24,"componentType":5126,"count":96,"max":[0.5,0.3125,0.5],"min":[-0.5,0.1875,-0.5],"type":"VEC3"},{"bufferView":25,"componentType":5126,"count":96,"max":[1,1,1],"min":[-1,-1,-1],"type":"VEC3"},{"bufferView":26,"componentType":5126,"count":96,"max":[0.5711888670921326,0.484375],"min":[0,0],"type":"VEC2"},{"bufferView":27,"componentType":5123,"count":132,"max":[95],"min":[0],"type":"SCALAR"},{"bufferView":28,"componentType":5126,"count":4,"max":[0.09375,0,0.09375],"min":[-0.09375,0,-0.09375],"type":"VEC3"},{"bufferView":29,"componentType":5126,"count":4,"max":[0,1,0],"min":[0,1,0],"type":"VEC3"},{"bufferView":30,"componentType":5126,"count":4,"max":[0.296875,0.359375],"min":[0.25,0.3125],"type":"VEC2"},{"bufferView":31,"componentType":5123,"count":6,"max":[3],"min":[0],"type":"SCALAR"},{"bufferView":32,"componentType":5126,"count":4,"max":[0.09375,0,0.09375],"min":[-0.09375,0,-0.09375],"type":"VEC3"},{"bufferView":33,"componentType":5126,"count":4,"max":[0,1,0],"min":[0,1,0],"type":"VEC3"},{"bufferView":34,"componentType":5126,"count":4,"max":[0.296875,0.359375],"min":[0.25,0.3125],"type":"VEC2"},{"bufferView":35,"componentType":5123,"count":6,"max":[3],"min":[0],"type":"SCALAR"},{"bufferView":36,"componentType":5126,"count":4,"max":[0.09375,0,0.09375],"min":[-0.09375,0,-0.09375],"type":"VEC3"},{"bufferView":37,"componentType":5126,"count":4,"max":[0,1,0],"min":[0,1,0],"type":"VEC3"},{"bufferView":38,"componentType":5126,"count":4,"max":[0.296875,0.359375],"min":[0.25,0.3125],"type":"VEC2"},{"bufferView":39,"componentType":5123,"count":6,"max":[3],"min":[0],"type":"SCALAR"},{"bufferView":40,"componentType":5126,"count":4,"max":[0.09375,0,0.09375],"min":[-0.09375,0,-0.09375],"type":"VEC3"},{"bufferView":41,"componentType":5126,"count":4,"max":[0,1,0],"min":[0,1,0],"type":"VEC3"},{"bufferView":42,"componentType":5126,"count":4,"max":[0.296875,0.359375],"min":[0.25,0.3125],"type":"VEC2"},{"bufferView":43,"componentType":5123,"count":6,"max":[3],"min":[0],"type":"SCALAR"},{"bufferView":44,"componentType":5126,"count":4,"max":[0.09375,0,0.09375],"min":[-0.09375,0,-0.09375],"type":"VEC3"},{"bufferView":45,"componentType":5126,"count":4,"max":[0,1,0],"min":[0,1,0],"type":"VEC3"},{"bufferView":46,"componentType":5126,"count":4,"max":[0.296875,0.359375],"min":[0.25,0.3125],"type":"VEC2"},{"bufferView":47,"componentType":5123,"count":6,"max":[3],"min":[0],"type":"SCALAR"},{"bufferView":48,"componentType":5126,"count":4,"max":[0.09375,0,0.09375],"min":[-0.09375,0,-0.09375],"type":"VEC3"},{"bufferView":49,"componentType":5126,"count":4,"max":[0,1,0],"min":[0,1,0],"type":"VEC3"},{"bufferView":50,"componentType":5126,"count":4,"max":[0.296875,0.359375],"min":[0.25,0.3125],"type":"VEC2"},{"bufferView":51,"componentType":5123,"count":6,"max":[3],"min":[0],"type":"SCALAR"},{"bufferView":52,"componentType":5126,"count":4,"max":[0.09375,0,0.09375],"min":[-0.09375,0,-0.09375],"type":"VEC3"},{"bufferView":53,"componentType":5126,"count":4,"max":[0,1,0],"min":[0,1,0],"type":"VEC3"},{"bufferView":54,"componentType":5126,"count":4,"max":[0.296875,0.359375],"min":[0.25,0.3125],"type":"VEC2"},{"bufferView":55,"componentType":5123,"count":6,"max":[3],"min":[0],"type":"SCALAR"}],"materials":[{"pbrMetallicRoughness":{"metallicFactor":0,"roughnessFactor":1,"baseColorTexture":{"index":0}},"alphaMode":"MASK","alphaCutoff":0.05,"doubleSided":true},{"pbrMetallicRoughness":{"metallicFactor":0,"roughnessFactor":1,"baseColorTexture":{"index":1}},"alphaMode":"MASK","alphaCutoff":0.05,"doubleSided":true}],"textures":[{"sampler":0,"source":0,"name":"tree_tower_txt.png"},{"sampler":1,"source":1,"name":"ground_tree_txt"}],"samplers":[{"magFilter":9728,"minFilter":9728,"wrapS":33071,"wrapT":33071},{"magFilter":9728,"minFilter":9728,"wrapS":33071,"wrapT":33071}],"images":[{"mimeType":"image/png","uri":"data:image/png;base64,"},{"mimeType":"image/png","uri":"data:image/png;base64,"}],"meshes":[{"primitives":[{"mode":4,"attributes":{"POSITION":0,"NORMAL":1,"TEXCOORD_0":2},"indices":3,"material":0}]},{"primitives":[{"mode":4,"attributes":{"POSITION":4,"NORMAL":5,"TEXCOORD_0":6},"indices":7,"material":0}]},{"primitives":[{"mode":4,"attributes":{"POSITION":8,"NORMAL":9,"TEXCOORD_0":10},"indices":11,"material":0}]},{"primitives":[{"mode":4,"attributes":{"POSITION":12,"NORMAL":13,"TEXCOORD_0":14},"indices":15,"material":0}]},{"primitives":[{"mode":4,"attributes":{"POSITION":16,"NORMAL":17,"TEXCOORD_0":18},"indices":19,"material":0}]},{"primitives":[{"mode":4,"attributes":{"POSITION":20,"NORMAL":21,"TEXCOORD_0":22},"indices":23,"material":0}]},{"primitives":[{"mode":4,"attributes":{"POSITION":24,"NORMAL":25,"TEXCOORD_0":26},"indices":27,"material":1}]},{"primitives":[{"mode":4,"attributes":{"POSITION":28,"NORMAL":29,"TEXCOORD_0":30},"indices":31,"material":1}]},{"primitives":[{"mode":4,"attributes":{"POSITION":32,"NORMAL":33,"TEXCOORD_0":34},"indices":35,"material":1}]},{"primitives":[{"mode":4,"attributes":{"POSITION":36,"NORMAL":37,"TEXCOORD_0":38},"indices":39,"material":1}]},{"primitives":[{"mode":4,"attributes":{"POSITION":40,"NORMAL":41,"TEXCOORD_0":42},"indices":43,"material":1}]},{"primitives":[{"mode":4,"attributes":{"POSITION":44,"NORMAL":45,"TEXCOORD_0":46},"indices":47,"material":1}]},{"primitives":[{"mode":4,"attributes":{"POSITION":48,"NORMAL":49,"TEXCOORD_0":50},"indices":51,"material":1}]},{"primitives":[{"mode":4,"attributes":{"POSITION":52,"NORMAL":53,"TEXCOORD_0":54},"indices":55,"material":1}]}]}