{"asset":{"version":"2.0","generator":"Blockbench 4.10.0 glTF exporter"},"scenes":[{"nodes":[8],"name":"blockbench_export"}],"scene":0,"nodes":[{"rotation":[0,-0.32143946530316175,0,0.9469301294951056],"translation":[-0.25,0.5625,0],"name":"cone","mesh":0},{"translation":[-0.25,-0.84375,0],"name":"cylinder","mesh":1},{"translation":[-0.25,0.75,0],"name":"cone","mesh":2},{"translation":[0.1875,0.0625,-0.25],"name":"cuboid","mesh":3},{"rotation":[0.38268343236508967,0,0,0.9238795325112868],"name":"cuboid","mesh":4},{"rotation":[0.38268343236508967,0,0,0.9238795325112868],"name":"cuboid","mesh":5},{"translation":[-0.1875,-0.125,0.25],"name":"podium_1","children":[3,4,5]},{"translation":[0.234375,0.84375,-0.04687500000000003],"name":"tower2","children":[0,1,2,6]},{"children":[7]}],"bufferViews":[{"buffer":0,"byteOffset":0,"byteLength":432,"target":34962,"byteStride":12},{"buffer":0,"byteOffset":432,"byteLength":432,"target":34962,"byteStride":12},{"buffer":0,"byteOffset":864,"byteLength":288,"target":34962,"byteStride":8},{"buffer":0,"byteOffset":1152,"byteLength":72,"target":34963},{"buffer":0,"byteOffset":1224,"byteLength":960,"target":34962,"byteStride":12},{"buffer":0,"byteOffset":2184,"byteLength":960,"target":34962,"byteStride":12},{"buffer":0,"byteOffset":3144,"byteLength":640,"target":34962,"byteStride":8},{"buffer":0,"byteOffset":3784,"byteLength":192,"target":34963},{"buffer":0,"byteOffset":3976,"byteLength":432,"target":34962,"byteStride":12},{"buffer":0,"byteOffset":4408,"byteLength":432,"target":34962,"byteStride":12},{"buffer":0,"byteOffset":4840,"byteLength":288,"target":34962,"byteStride":8},{"buffer":0,"byteOffset":5128,"byteLength":72,"target":34963},{"buffer":0,"byteOffset":5200,"byteLength":288,"target":34962,"byteStride":12},{"buffer":0,"byteOffset":5488,"byteLength":288,"target":34962,"byteStride":12},{"buffer":0,"byteOffset":5776,"byteLength":192,"target":34962,"byteStride":8},{"buffer":0,"byteOffset":5968,"byteLength":72,"target":34963},{"buffer":0,"byteOffset":6040,"byteLength":288,"target":34962,"byteStride":12},{"buffer":0,"byteOffset":6328,"byteLength":288,"target":34962,"byteStride":12},{"buffer":0,"byteOffset":6616,"byteLength":192,"target":34962,"byteStride":8},{"buffer":0,"byteOffset":6808,"byteLength":72,"target":34963},{"buffer":0,"byteOffset":6880,"byteLength":288,"target":34962,"byteStride":12},{"buffer":0,"byteOffset":7168,"byteLength":288,"target":34962,"byteStride":12},{"buffer":0,"byteOffset":7456,"byteLength":192,"target":34962,"byteStride":8},{"buffer":0,"byteOffset":7648,"byteLength":72,"target":34963}],"buffers":[{"byteLength":7720,"uri":"data:application/octet-stream;base64,"}],"accessors":[{"bufferView":0,"componentType":5126,"count":36,"max":[0.6495190262794495,0.75,0.5625],"min":[-0.6495190262794495,0,-0.5625],"type":"VEC3"},{"bufferView":1,"componentType":5126,"count":36,"max":[0.6928203105926514,0.6000000238418579,0.800000011920929],"min":[-0.6928203105926514,-1,-0.800000011920929],"type":"VEC3"},{"bufferView":2,"componentType":5126,"count":36,"max":[0.4296875,0.4833947420120239],"min":[0,0.0390625],"type":"VEC2"},{"bufferView":3,"componentType":5123,"count":36,"max":[35],"min":[0],"type":"SCALAR"},{"bufferView":4,"componentType":5126,"count":80,"max":[0.15625,1.5625,0.15625],"min":[-0.15625,0,-0.15625],"type":"VEC3"},{"bufferView":5,"componentType":5126,"count":80,"max":[1,1,1],"min":[-1,-1,-1],"type":"VEC3"},{"bufferView":6,"componentType":5126,"count":80,"max":[0.40625,0.609375],"min":[0.0859375,0.2578125],"type":"VEC2"},{"bufferView":7,"componentType":5123,"count":96,"max":[79],"min":[0],"type":"SCALAR"},{"bufferView":8,"componentType":5126,"count":36,"max":[0.6182690262794495,0.75,0.53125],"min":[-0.6182690262794495,0,-0.53125],"type":"VEC3"},{"bufferView":9,"componentType":5126,"count":36,"max":[0.703915536403656,0.5802789330482483,0.8160244822502136],"min":[-0.703915536403656,-1,-0.8160244822502136],"type":"VEC3"},{"bufferView":10,"componentType":5126,"count":36,"max":[0.359375,0.4130822420120239],"min":[0,0],"type":"VEC2"},{"bufferView":11,"componentType":5123,"count":36,"max":[35],"min":[0],"type":"SCALAR"},{"bufferView":12,"componentType":5126,"count":24,"max":[-0.09375,0.0625,0.46875],"min":[-0.40625,0,-0.03125],"type":"VEC3"},{"bufferView":13,"componentType":5126,"count":24,"max":[0.9922778606414795,1,1],"min":[-0.9922778606414795,-1,-1],"type":"VEC3"},{"bufferView":14,"componentType":5126,"count":24,"max":[0.4217241704463959,0.3862059712409973],"min":[0,0],"type":"VEC2"},{"bufferView":15,"componentType":5123,"count":36,"max":[23],"min":[0],"type":"SCALAR"},{"bufferView":16,"componentType":5126,"count":24,"max":[0.03125,0.125,0.03125],"min":[-0.03125,-0.25,-0.03125],"type":"VEC3"},{"bufferView":17,"componentType":5126,"count":24,"max":[1,1,1],"min":[-1,-1,-1],"type":"VEC3"},{"bufferView":18,"componentType":5126,"count":24,"max":[0.3203125,0.359375],"min":[0,0.015625],"type":"VEC2"},{"bufferView":19,"componentType":5123,"count":36,"max":[23],"min":[0],"type":"SCALAR"},{"bufferView":20,"componentType":5126,"count":24,"max":[-0.09375,0.125,0.03125],"min":[-0.15625,-0.25,-0.03125],"type":"VEC3"},{"bufferView":21,"componentType":5126,"count":24,"max":[1,1,1],"min":[-1,-1,-1],"type":"VEC3"},{"bufferView":22,"componentType":5126,"count":24,"max":[0.40625,0.390625],"min":[0,0.078125],"type":"VEC2"},{"bufferView":23,"componentType":5123,"count":36,"max":[23],"min":[0],"type":"SCALAR"}],"materials":[{"pbrMetallicRoughness":{"metallicFactor":0,"roughnessFactor":1,"baseColorTexture":{"index":0}},"alphaMode":"MASK","alphaCutoff":0.05,"doubleSided":true}],"textures":[{"sampler":0,"source":0,"name":"tree_tower"}],"samplers":[{"magFilter":9728,"minFilter":9728,"wrapS":33071,"wrapT":33071}],"images":[{"mimeType":"image/png","uri":"data:image/png;base64,"}],"meshes":[{"primitives":[{"mode":4,"attributes":{"POSITION":0,"NORMAL":1,"TEXCOORD_0":2},"indices":3,"material":0}]},{"primitives":[{"mode":4,"attributes":{"POSITION":4,"NORMAL":5,"TEXCOORD_0":6},"indices":7,"material":0}]},{"primitives":[{"mode":4,"attributes":{"POSITION":8,"NORMAL":9,"TEXCOORD_0":10},"indices":11,"material":0}]},{"primitives":[{"mode":4,"attributes":{"POSITION":12,"NORMAL":13,"TEXCOORD_0":14},"indices":15,"material":0}]},{"primitives":[{"mode":4,"attributes":{"POSITION":16,"NORMAL":17,"TEXCOORD_0":18},"indices":19,"material":0}]},{"primitives":[{"mode":4,"attributes":{"POSITION":20,"NORMAL":21,"TEXCOORD_0":22},"indices":23,"material":0}]}]}