{"asset":{"version":"2.0","generator":"Blockbench 4.10.1 glTF exporter"},"scenes":[{"nodes":[22],"name":"blockbench_export"}],"scene":0,"nodes":[{"translation":[-0.046875,-0.390625,0.359375],"name":"ground","mesh":0},{"rotation":[-0.5422772703372085,-0.8181109927203888,-0.13228966253638794,-0.13830839038791168],"translation":[0.1875,0,0.6875],"name":"grass1","mesh":1},{"rotation":[0.5681188317524165,0.7910520092570704,-0.15949736444174012,-0.16136388194004228],"translation":[0.3125,0,0.375],"name":"grass2","mesh":2},{"rotation":[0.5999556117318631,0.7975569849089204,-0.06286691534796886,-0.001967416851950527],"translation":[-0.25,0,0.6875],"name":"grass3","mesh":3},{"rotation":[-0.5765378379990607,-0.7832864541632835,-0.16282421179508694,-0.1659961690310597],"translation":[-0.375,0,0.1875],"name":"grass4","mesh":4},{"rotation":[0.5992987694109997,0.794055671050418,-0.09759602704539774,-0.02813524053719317],"translation":[-0.3125,0,0.4375],"name":"grass5","mesh":5},{"rotation":[0.5945661088737403,0.7825279952637497,-0.16643115649083057,-0.08026050682846075],"translation":[0.25,0,0],"name":"grass6","mesh":6},{"rotation":[0.5994704044465456,0.7995401037164742,-0.02801813290405069,0.02420415192308554],"name":"grass7","mesh":7},{"translation":[0.046875,0.078125,-0.359375],"name":"floor","children":[0,1,2,3,4,5,6,7]},{"name":"cylinder","mesh":8},{"translation":[1.7906822977825105e-18,0,1.9697505275607617e-17],"name":"sphere","mesh":9},{"translation":[-1.7906822977825105e-18,1.125,-1.9697505275607617e-17],"name":"leafs","children":[10]},{"rotation":[0.7071067811865475,0,0,0.7071067811865476],"translation":[0,0.375,-0.25],"name":"cuboid","mesh":10},{"name":"nose","children":[12]},{"rotation":[0.030843564597232927,-0.7064337722128938,0.7064337722128904,0.03084356459723088],"translation":[-0.0027236169608643073,1.3877787807814457e-16,-0.03113108431536704],"name":"circle","mesh":11},{"translation":[0.0027236169608643073,0.23437499999999986,-0.20324391568463296],"name":"mouth","children":[14]},{"rotation":[-0.36682808874354345,0.3668280887435449,-0.6045139810697165,0.604513981069718],"translation":[0.15625,1.1102230246251565e-16,-0.04157863280522914],"name":"circle","mesh":12},{"rotation":[-0.36682808874354345,-0.3668280887435449,0.6045139810697165,0.604513981069718],"translation":[-0.15625,1.1102230246251565e-16,-0.04157863280522914],"name":"circle","mesh":13},{"translation":[0,0.4687499999999999,-0.16154636719477086],"name":"eyes","children":[16,17]},{"translation":[0,0,-0.015625],"name":"face","children":[13,15,18]},{"name":"trunk","children":[9,11,19]},{"name":"tower3","children":[20]},{"children":[8,21]}],"bufferViews":[{"buffer":0,"byteOffset":0,"byteLength":1152,"target":34962,"byteStride":12},{"buffer":0,"byteOffset":1152,"byteLength":1152,"target":34962,"byteStride":12},{"buffer":0,"byteOffset":2304,"byteLength":768,"target":34962,"byteStride":8},{"buffer":0,"byteOffset":3072,"byteLength":264,"target":34963},{"buffer":0,"byteOffset":3336,"byteLength":48,"target":34962,"byteStride":12},{"buffer":0,"byteOffset":3384,"byteLength":48,"target":34962,"byteStride":12},{"buffer":0,"byteOffset":3432,"byteLength":32,"target":34962,"byteStride":8},{"buffer":0,"byteOffset":3464,"byteLength":12,"target":34963},{"buffer":0,"byteOffset":3476,"byteLength":48,"target":34962,"byteStride":12},{"buffer":0,"byteOffset":3524,"byteLength":48,"target":34962,"byteStride":12},{"buffer":0,"byteOffset":3572,"byteLength":32,"target":34962,"byteStride":8},{"buffer":0,"byteOffset":3604,"byteLength":12,"target":34963},{"buffer":0,"byteOffset":3616,"byteLength":48,"target":34962,"byteStride":12},{"buffer":0,"byteOffset":3664,"byteLength":48,"target":34962,"byteStride":12},{"buffer":0,"byteOffset":3712,"byteLength":32,"target":34962,"byteStride":8},{"buffer":0,"byteOffset":3744,"byteLength":12,"target":34963},{"buffer":0,"byteOffset":3756,"byteLength":48,"target":34962,"byteStride":12},{"buffer":0,"byteOffset":3804,"byteLength":48,"target":34962,"byteStride":12},{"buffer":0,"byteOffset":3852,"byteLength":32,"target":34962,"byteStride":8},{"buffer":0,"byteOffset":3884,"byteLength":12,"target":34963},{"buffer":0,"byteOffset":3896,"byteLength":48,"target":34962,"byteStride":12},{"buffer":0,"byteOffset":3944,"byteLength":48,"target":34962,"byteStride":12},{"buffer":0,"byteOffset":3992,"byteLength":32,"target":34962,"byteStride":8},{"buffer":0,"byteOffset":4024,"byteLength":12,"target":34963},{"buffer":0,"byteOffset":4036,"byteLength":48,"target":34962,"byteStride":12},{"buffer":0,"byteOffset":4084,"byteLength":48,"target":34962,"byteStride":12},{"buffer":0,"byteOffset":4132,"byteLength":32,"target":34962,"byteStride":8},{"buffer":0,"byteOffset":4164,"byteLength":12,"target":34963},{"buffer":0,"byteOffset":4176,"byteLength":48,"target":34962,"byteStride":12},{"buffer":0,"byteOffset":4224,"byteLength":48,"target":34962,"byteStride":12},{"buffer":0,"byteOffset":4272,"byteLength":32,"target":34962,"byteStride":8},{"buffer":0,"byteOffset":4304,"byteLength":12,"target":34963},{"buffer":0,"byteOffset":4316,"byteLength":1200,"target":34962,"byteStride":12},{"buffer":0,"byteOffset":5516,"byteLength":1200,"target":34962,"byteStride":12},{"buffer":0,"byteOffset":6716,"byteLength":800,"target":34962,"byteStride":8},{"buffer":0,"byteOffset":7516,"byteLength":240,"target":34963},{"buffer":0,"byteOffset":7756,"byteLength":3168,"target":34962,"byteStride":12},{"buffer":0,"byteOffset":10924,"byteLength":3168,"target":34962,"byteStride":12},{"buffer":0,"byteOffset":14092,"byteLength":2112,"target":34962,"byteStride":8},{"buffer":0,"byteOffset":16204,"byteLength":720,"target":34963},{"buffer":0,"byteOffset":16924,"byteLength":288,"target":34962,"byteStride":12},{"buffer":0,"byteOffset":17212,"byteLength":288,"target":34962,"byteStride":12},{"buffer":0,"byteOffset":17500,"byteLength":192,"target":34962,"byteStride":8},{"buffer":0,"byteOffset":17692,"byteLength":72,"target":34963},{"buffer":0,"byteOffset":17764,"byteLength":216,"target":34962,"byteStride":12},{"buffer":0,"byteOffset":17980,"byteLength":216,"target":34962,"byteStride":12},{"buffer":0,"byteOffset":18196,"byteLength":144,"target":34962,"byteStride":8},{"buffer":0,"byteOffset":18340,"byteLength":36,"target":34963},{"buffer":0,"byteOffset":18376,"byteLength":216,"target":34962,"byteStride":12},{"buffer":0,"byteOffset":18592,"byteLength":216,"target":34962,"byteStride":12},{"buffer":0,"byteOffset":18808,"byteLength":144,"target":34962,"byteStride":8},{"buffer":0,"byteOffset":18952,"byteLength":36,"target":34963},{"buffer":0,"byteOffset":18988,"byteLength":216,"target":34962,"byteStride":12},{"buffer":0,"byteOffset":19204,"byteLength":216,"target":34962,"byteStride":12},{"buffer":0,"byteOffset":19420,"byteLength":144,"target":34962,"byteStride":8},{"buffer":0,"byteOffset":19564,"byteLength":36,"target":34963},{"buffer":0,"byteOffset":19600,"byteLength":20},{"buffer":0,"byteOffset":19620,"byteLength":80},{"buffer":0,"byteOffset":19700,"byteLength":28},{"buffer":0,"byteOffset":19728,"byteLength":112},{"buffer":0,"byteOffset":19840,"byteLength":20},{"buffer":0,"byteOffset":19860,"byteLength":80},{"buffer":0,"byteOffset":19940,"byteLength":20},{"buffer":0,"byteOffset":19960,"byteLength":60},{"buffer":0,"byteOffset":20020,"byteLength":16},{"buffer":0,"byteOffset":20036,"byteLength":48},{"buffer":0,"byteOffset":20084,"byteLength":16},{"buffer":0,"byteOffset":20100,"byteLength":64},{"buffer":0,"byteOffset":20164,"byteLength":16},{"buffer":0,"byteOffset":20180,"byteLength":48}],"buffers":[{"byteLength":20228,"uri":"data:application/octet-stream;base64,"}],"accessors":[{"bufferView":0,"componentType":5126,"count":96,"max":[0.5,0.3125,0.5],"min":[-0.5,0.1875,-0.5],"type":"VEC3"},{"bufferView":1,"componentType":5126,"count":96,"max":[1,1,1],"min":[-1,-1,-1],"type":"VEC3"},{"bufferView":2,"componentType":5126,"count":96,"max":[0.5711888670921326,0.484375],"min":[0,0],"type":"VEC2"},{"bufferView":3,"componentType":5123,"count":132,"max":[95],"min":[0],"type":"SCALAR"},{"bufferView":4,"componentType":5126,"count":4,"max":[0.09375,0,0.09375],"min":[-0.09375,0,-0.09375],"type":"VEC3"},{"bufferView":5,"componentType":5126,"count":4,"max":[0,1,0],"min":[0,1,0],"type":"VEC3"},{"bufferView":6,"componentType":5126,"count":4,"max":[0.296875,0.359375],"min":[0.25,0.3125],"type":"VEC2"},{"bufferView":7,"componentType":5123,"count":6,"max":[3],"min":[0],"type":"SCALAR"},{"bufferView":8,"componentType":5126,"count":4,"max":[0.09375,0,0.09375],"min":[-0.09375,0,-0.09375],"type":"VEC3"},{"bufferView":9,"componentType":5126,"count":4,"max":[0,1,0],"min":[0,1,0],"type":"VEC3"},{"bufferView":10,"componentType":5126,"count":4,"max":[0.296875,0.359375],"min":[0.25,0.3125],"type":"VEC2"},{"bufferView":11,"componentType":5123,"count":6,"max":[3],"min":[0],"type":"SCALAR"},{"bufferView":12,"componentType":5126,"count":4,"max":[0.09375,0,0.09375],"min":[-0.09375,0,-0.09375],"type":"VEC3"},{"bufferView":13,"componentType":5126,"count":4,"max":[0,1,0],"min":[0,1,0],"type":"VEC3"},{"bufferView":14,"componentType":5126,"count":4,"max":[0.296875,0.359375],"min":[0.25,0.3125],"type":"VEC2"},{"bufferView":15,"componentType":5123,"count":6,"max":[3],"min":[0],"type":"SCALAR"},{"bufferView":16,"componentType":5126,"count":4,"max":[0.09375,0,0.09375],"min":[-0.09375,0,-0.09375],"type":"VEC3"},{"bufferView":17,"componentType":5126,"count":4,"max":[0,1,0],"min":[0,1,0],"type":"VEC3"},{"bufferView":18,"componentType":5126,"count":4,"max":[0.296875,0.359375],"min":[0.25,0.3125],"type":"VEC2"},{"bufferView":19,"componentType":5123,"count":6,"max":[3],"min":[0],"type":"SCALAR"},{"bufferView":20,"componentType":5126,"count":4,"max":[0.09375,0,0.09375],"min":[-0.09375,0,-0.09375],"type":"VEC3"},{"bufferView":21,"componentType":5126,"count":4,"max":[0,1,0],"min":[0,1,0],"type":"VEC3"},{"bufferView":22,"componentType":5126,"count":4,"max":[0.296875,0.359375],"min":[0.25,0.3125],"type":"VEC2"},{"bufferView":23,"componentType":5123,"count":6,"max":[3],"min":[0],"type":"SCALAR"},{"bufferView":24,"componentType":5126,"count":4,"max":[0.09375,0,0.09375],"min":[-0.09375,0,-0.09375],"type":"VEC3"},{"bufferView":25,"componentType":5126,"count":4,"max":[0,1,0],"min":[0,1,0],"type":"VEC3"},{"bufferView":26,"componentType":5126,"count":4,"max":[0.296875,0.359375],"min":[0.25,0.3125],"type":"VEC2"},{"bufferView":27,"componentType":5123,"count":6,"max":[3],"min":[0],"type":"SCALAR"},{"bufferView":28,"componentType":5126,"count":4,"max":[0.09375,0,0.09375],"min":[-0.09375,0,-0.09375],"type":"VEC3"},{"bufferView":29,"componentType":5126,"count":4,"max":[0,1,0],"min":[0,1,0],"type":"VEC3"},{"bufferView":30,"componentType":5126,"count":4,"max":[0.296875,0.359375],"min":[0.25,0.3125],"type":"VEC2"},{"bufferView":31,"componentType":5123,"count":6,"max":[3],"min":[0],"type":"SCALAR"},{"bufferView":32,"componentType":5126,"count":100,"max":[0.21323111653327942,0.75,0.1875],"min":[-0.21323111653327942,0,-0.1875],"type":"VEC3"},{"bufferView":33,"componentType":5126,"count":100,"max":[0.9434386491775513,1,1],"min":[-0.9434386491775513,-1,-1],"type":"VEC3"},{"bufferView":34,"componentType":5126,"count":100,"max":[0.609375,0.796875],"min":[0.001379687455482781,0],"type":"VEC2"},{"bufferView":35,"componentType":5123,"count":120,"max":[99],"min":[0],"type":"SCALAR"},{"bufferView":36,"componentType":5126,"count":264,"max":[0.5,0.5,0.5],"min":[-0.5,-0.5,-0.5],"type":"VEC3"},{"bufferView":37,"componentType":5126,"count":264,"max":[0.9659258127212524,0.9659258127212524,0.9659258127212524],"min":[-0.9659258127212524,-0.9659258127212524,-0.9659258127212524],"type":"VEC3"},{"bufferView":38,"componentType":5126,"count":264,"max":[0.7892138361930847,0.6622634530067444],"min":[0.005047542974352837,0],"type":"VEC2"},{"bufferView":39,"componentType":5123,"count":360,"max":[263],"min":[0],"type":"SCALAR"},{"bufferView":40,"componentType":5126,"count":24,"max":[0.03125,0.0625,0.03125],"min":[-0.03125,-0.0625,-0.03125],"type":"VEC3"},{"bufferView":41,"componentType":5126,"count":24,"max":[1,1,1],"min":[-1,-1,-1],"type":"VEC3"},{"bufferView":42,"componentType":5126,"count":24,"max":[0.234375,0.203125],"min":[0,0],"type":"VEC2"},{"bufferView":43,"componentType":5123,"count":36,"max":[23],"min":[0],"type":"SCALAR"},{"bufferView":44,"componentType":5126,"count":18,"max":[0.12405654788017273,-0.027164574712514877,0.046875],"min":[-0.12405654788017273,-0.03533542528748512,-0.046875],"type":"VEC3"},{"bufferView":45,"componentType":5126,"count":18,"max":[0.03285513073205948,1,0.05984126403927803],"min":[0,0.9976670742034912,-0.05984126403927803],"type":"VEC3"},{"bufferView":46,"componentType":5126,"count":18,"max":[0.4997800290584564,0.2422298789024353],"min":[0.4377199709415436,0.21875],"type":"VEC2"},{"bufferView":47,"componentType":5123,"count":18,"max":[17],"min":[0],"type":"SCALAR"},{"bufferView":48,"componentType":5126,"count":18,"max":[0.10825317353010178,-0.046875,0.09375],"min":[-0.10825317353010178,-0.046875,-0.09375],"type":"VEC3"},{"bufferView":49,"componentType":5126,"count":18,"max":[0,1,0],"min":[0,1,0],"type":"VEC3"},{"bufferView":50,"componentType":5126,"count":18,"max":[0.058314062654972076,0.375],"min":[0.004185937345027924,0.328125],"type":"VEC2"},{"bufferView":51,"componentType":5123,"count":18,"max":[17],"min":[0],"type":"SCALAR"},{"bufferView":52,"componentType":5126,"count":18,"max":[0.10825317353010178,-0.046875,0.09375],"min":[-0.10825317353010178,-0.046875,-0.09375],"type":"VEC3"},{"bufferView":53,"componentType":5126,"count":18,"max":[0,1,0],"min":[0,1,0],"type":"VEC3"},{"bufferView":54,"componentType":5126,"count":18,"max":[0.4801890552043915,0.375],"min":[0.4260609447956085,0.328125],"type":"VEC2"},{"bufferView":55,"componentType":5123,"count":18,"max":[17],"min":[0],"type":"SCALAR"},{"bufferView":56,"componentType":5126,"count":5,"max":[4.5],"min":[0],"type":"SCALAR"},{"bufferView":57,"componentType":5126,"count":5,"max":[0,0,0.051115863025188446,1],"min":[0,0,-0.04361938685178757,0.9986927509307861],"type":"VEC4"},{"bufferView":58,"componentType":5126,"count":7,"max":[4.5],"min":[0],"type":"SCALAR"},{"bufferView":59,"componentType":5126,"count":7,"max":[0,0.30070579051971436,0,1],"min":[0,-0.30070579051971436,0,0.9537169337272644],"type":"VEC4"},{"bufferView":60,"componentType":5126,"count":5,"max":[1],"min":[0],"type":"SCALAR"},{"bufferView":61,"componentType":5126,"count":5,"max":[0.15212339162826538,0,0,1],"min":[-0.10886687785387039,0,0,0.9883615374565125],"type":"VEC4"},{"bufferView":62,"componentType":5126,"count":5,"max":[1],"min":[0],"type":"SCALAR"},{"bufferView":63,"componentType":5126,"count":5,"max":[1,1.2999999523162842,1],"min":[1,0.800000011920929,1],"type":"VEC3"},{"bufferView":64,"componentType":5126,"count":4,"max":[1],"min":[0],"type":"SCALAR"},{"bufferView":65,"componentType":5126,"count":4,"max":[1.5,1.5,1],"min":[0.5,0.5,1],"type":"VEC3"},{"bufferView":66,"componentType":5126,"count":4,"max":[1],"min":[0],"type":"SCALAR"},{"bufferView":67,"componentType":5126,"count":4,"max":[0,0,0,1],"min":[-0.2164396196603775,0,0,0.9762960076332092],"type":"VEC4"},{"bufferView":68,"componentType":5126,"count":4,"max":[1],"min":[0],"type":"SCALAR"},{"bufferView":69,"componentType":5126,"count":4,"max":[1,1,1],"min":[1,0.4000000059604645,1],"type":"VEC3"}],"materials":[{"pbrMetallicRoughness":{"metallicFactor":0,"roughnessFactor":1,"baseColorTexture":{"index":0}},"alphaMode":"MASK","alphaCutoff":0.05,"doubleSided":true},{"pbrMetallicRoughness":{"metallicFactor":0,"roughnessFactor":1,"baseColorTexture":{"index":1}},"alphaMode":"MASK","alphaCutoff":0.05,"doubleSided":true}],"textures":[{"sampler":0,"source":0,"name":"ground_tree_txt.png"},{"sampler":1,"source":1,"name":"tree_sentry_txt.png"}],"samplers":[{"magFilter":9728,"minFilter":9728,"wrapS":33071,"wrapT":33071},{"magFilter":9728,"minFilter":9728,"wrapS":33071,"wrapT":33071}],"images":[{"mimeType":"image/png","uri":"data:image/png;base64,"},{"mimeType":"image/png","uri":"data:image/png;base64,"}],"meshes":[{"primitives":[{"mode":4,"attributes":{"POSITION":0,"NORMAL":1,"TEXCOORD_0":2},"indices":3,"material":0}]},{"primitives":[{"mode":4,"attributes":{"POSITION":4,"NORMAL":5,"TEXCOORD_0":6},"indices":7,"material":0}]},{"primitives":[{"mode":4,"attributes":{"POSITION":8,"NORMAL":9,"TEXCOORD_0":10},"indices":11,"material":0}]},{"primitives":[{"mode":4,"attributes":{"POSITION":12,"NORMAL":13,"TEXCOORD_0":14},"indices":15,"material":0}]},{"primitives":[{"mode":4,"attributes":{"POSITION":16,"NORMAL":17,"TEXCOORD_0":18},"indices":19,"material":0}]},{"primitives":[{"mode":4,"attributes":{"POSITION":20,"NORMAL":21,"TEXCOORD_0":22},"indices":23,"material":0}]},{"primitives":[{"mode":4,"attributes":{"POSITION":24,"NORMAL":25,"TEXCOORD_0":26},"indices":27,"material":0}]},{"primitives":[{"mode":4,"attributes":{"POSITION":28,"NORMAL":29,"TEXCOORD_0":30},"indices":31,"material":0}]},{"primitives":[{"mode":4,"attributes":{"POSITION":32,"NORMAL":33,"TEXCOORD_0":34},"indices":35,"material":1}]},{"primitives":[{"mode":4,"attributes":{"POSITION":36,"NORMAL":37,"TEXCOORD_0":38},"indices":39,"material":1}]},{"primitives":[{"mode":4,"attributes":{"POSITION":40,"NORMAL":41,"TEXCOORD_0":42},"indices":43,"material":1}]},{"primitives":[{"mode":4,"attributes":{"POSITION":44,"NORMAL":45,"TEXCOORD_0":46},"indices":47,"material":1}]},{"primitives":[{"mode":4,"attributes":{"POSITION":48,"NORMAL":49,"TEXCOORD_0":50},"indices":51,"material":1}]},{"primitives":[{"mode":4,"attributes":{"POSITION":52,"NORMAL":53,"TEXCOORD_0":54},"indices":55,"material":1}]}],"animations":[{"name":"idle","samplers":[{"input":56,"output":57,"interpolation":"LINEAR"},{"input":58,"output":59,"interpolation":"LINEAR"}],"channels":[{"sampler":0,"target":{"node":20,"path":"rotation"}},{"sampler":1,"target":{"node":19,"path":"rotation"}}]},{"name":"attack","samplers":[{"input":60,"output":61,"interpolation":"LINEAR"},{"input":62,"output":63,"interpolation":"LINEAR"},{"input":64,"output":65,"interpolation":"LINEAR"},{"input":66,"output":67,"interpolation":"LINEAR"},{"input":68,"output":69,"interpolation":"LINEAR"}],"channels":[{"sampler":0,"target":{"node":20,"path":"rotation"}},{"sampler":1,"target":{"node":20,"path":"scale"}},{"sampler":2,"target":{"node":15,"path":"scale"}},{"sampler":3,"target":{"node":11,"path":"rotation"}},{"sampler":4,"target":{"node":18,"path":"scale"}}]}]}