{"asset":{"version":"2.0","generator":"Blockbench 4.10.0 glTF exporter"},"scenes":[{"nodes":[10],"name":"blockbench_export"}],"scene":0,"nodes":[{"translation":[0,0.125,0],"name":"body","mesh":0},{"translation":[0,0.125,0],"name":"body","children":[0]},{"rotation":[-0.011604576513566415,0.07539614426521046,0.15168011876916238,0.9854815557909002],"translation":[0,-0.1875,0],"name":"arm_right","mesh":1},{"translation":[0.3125,0.5625,-0.0625],"name":"arm_right","children":[2]},{"rotation":[0.13052619222005157,0,0,0.9914448613738104],"translation":[-1.2505498947198988e-7,-0.1893213881266882,-0.08967520905318155],"name":"hat","mesh":2},{"translation":[1.2505498947198988e-7,0.5643213881266882,0.21467520905318155],"name":"hat","children":[4]},{"translation":[0,0,0.125],"name":"head","mesh":3},{"translation":[0,0.625,0],"name":"head","children":[5,6]},{"rotation":[-0.011604576513566415,-0.07539614426521046,-0.15168011876916238,0.9854815557909002],"translation":[-0.037287665382930824,0.046951309768154204,-0.0047538558184349045],"name":"arm_left","mesh":4},{"rotation":[-4.336808689942017e-16,0,0,1],"translation":[-0.25,0.5625,-0.0625],"name":"arm_left","children":[8]},{"children":[1,3,7,9]}],"bufferViews":[{"buffer":0,"byteOffset":0,"byteLength":1512,"target":34962,"byteStride":12},{"buffer":0,"byteOffset":1512,"byteLength":1512,"target":34962,"byteStride":12},{"buffer":0,"byteOffset":3024,"byteLength":1008,"target":34962,"byteStride":8},{"buffer":0,"byteOffset":4032,"byteLength":336,"target":34963},{"buffer":0,"byteOffset":4368,"byteLength":480,"target":34962,"byteStride":12},{"buffer":0,"byteOffset":4848,"byteLength":480,"target":34962,"byteStride":12},{"buffer":0,"byteOffset":5328,"byteLength":320,"target":34962,"byteStride":8},{"buffer":0,"byteOffset":5648,"byteLength":120,"target":34963},{"buffer":0,"byteOffset":5768,"byteLength":2592,"target":34962,"byteStride":12},{"buffer":0,"byteOffset":8360,"byteLength":2592,"target":34962,"byteStride":12},{"buffer":0,"byteOffset":10952,"byteLength":1728,"target":34962,"byteStride":8},{"buffer":0,"byteOffset":12680,"byteLength":576,"target":34963},{"buffer":0,"byteOffset":13256,"byteLength":2064,"target":34962,"byteStride":12},{"buffer":0,"byteOffset":15320,"byteLength":2064,"target":34962,"byteStride":12},{"buffer":0,"byteOffset":17384,"byteLength":1376,"target":34962,"byteStride":8},{"buffer":0,"byteOffset":18760,"byteLength":456,"target":34963},{"buffer":0,"byteOffset":19216,"byteLength":480,"target":34962,"byteStride":12},{"buffer":0,"byteOffset":19696,"byteLength":480,"target":34962,"byteStride":12},{"buffer":0,"byteOffset":20176,"byteLength":320,"target":34962,"byteStride":8},{"buffer":0,"byteOffset":20496,"byteLength":120,"target":34963},{"buffer":0,"byteOffset":20616,"byteLength":12},{"buffer":0,"byteOffset":20628,"byteLength":48},{"buffer":0,"byteOffset":20676,"byteLength":4},{"buffer":0,"byteOffset":20680,"byteLength":12},{"buffer":0,"byteOffset":20692,"byteLength":4},{"buffer":0,"byteOffset":20696,"byteLength":12},{"buffer":0,"byteOffset":20708,"byteLength":12},{"buffer":0,"byteOffset":20720,"byteLength":48},{"buffer":0,"byteOffset":20768,"byteLength":4},{"buffer":0,"byteOffset":20772,"byteLength":12},{"buffer":0,"byteOffset":20784,"byteLength":4},{"buffer":0,"byteOffset":20788,"byteLength":12},{"buffer":0,"byteOffset":20800,"byteLength":12},{"buffer":0,"byteOffset":20812,"byteLength":48},{"buffer":0,"byteOffset":20860,"byteLength":4},{"buffer":0,"byteOffset":20864,"byteLength":12},{"buffer":0,"byteOffset":20876,"byteLength":4},{"buffer":0,"byteOffset":20880,"byteLength":12},{"buffer":0,"byteOffset":20892,"byteLength":4},{"buffer":0,"byteOffset":20896,"byteLength":16},{"buffer":0,"byteOffset":20912,"byteLength":4},{"buffer":0,"byteOffset":20916,"byteLength":12},{"buffer":0,"byteOffset":20928,"byteLength":12},{"buffer":0,"byteOffset":20940,"byteLength":36},{"buffer":0,"byteOffset":20976,"byteLength":4},{"buffer":0,"byteOffset":20980,"byteLength":16},{"buffer":0,"byteOffset":20996,"byteLength":4},{"buffer":0,"byteOffset":21000,"byteLength":12},{"buffer":0,"byteOffset":21012,"byteLength":4},{"buffer":0,"byteOffset":21016,"byteLength":12},{"buffer":0,"byteOffset":21028,"byteLength":148},{"buffer":0,"byteOffset":21176,"byteLength":444},{"buffer":0,"byteOffset":21620,"byteLength":148},{"buffer":0,"byteOffset":21768,"byteLength":592},{"buffer":0,"byteOffset":22360,"byteLength":148},{"buffer":0,"byteOffset":22508,"byteLength":592},{"buffer":0,"byteOffset":23100,"byteLength":152},{"buffer":0,"byteOffset":23252,"byteLength":456},{"buffer":0,"byteOffset":23708,"byteLength":148},{"buffer":0,"byteOffset":23856,"byteLength":444}],"buffers":[{"byteLength":24300,"uri":"data:application/octet-stream;base64,"}],"accessors":[{"bufferView":0,"componentType":5126,"count":126,"max":[0.39295682311058044,0.375,0.4375],"min":[-0.39295682311058044,-0.25,-0.4615441858768463],"type":"VEC3"},{"bufferView":1,"componentType":5126,"count":126,"max":[0.9727129340171814,1,0.995893120765686],"min":[-0.9755558967590332,-1,-0.8689369559288025],"type":"VEC3"},{"bufferView":2,"componentType":5126,"count":126,"max":[0.9618984460830688,0.859375],"min":[0.003323437413200736,0.140625],"type":"VEC2"},{"bufferView":3,"componentType":5123,"count":168,"max":[125],"min":[0],"type":"SCALAR"},{"bufferView":4,"componentType":5126,"count":40,"max":[0.109375,0.25,0.078125],"min":[-0.046875,-0.203125,-0.078125],"type":"VEC3"},{"bufferView":5,"componentType":5126,"count":40,"max":[0.9965457320213318,1,0.9965457320213318],"min":[-0.9965457320213318,-1,-0.9965457320213318],"type":"VEC3"},{"bufferView":6,"componentType":5126,"count":40,"max":[0.51171875,0.9375],"min":[0.00390625,0],"type":"VEC2"},{"bufferView":7,"componentType":5123,"count":60,"max":[39],"min":[0],"type":"SCALAR"},{"bufferView":8,"componentType":5126,"count":216,"max":[0.59375,0.543926477432251,0.59375],"min":[-0.59375,-0.03125,-0.59375],"type":"VEC3"},{"bufferView":9,"componentType":5126,"count":216,"max":[0.9188001751899719,0.9615908861160278,0.9678311944007874],"min":[-0.9187975525856018,-1,-0.7525761127471924],"type":"VEC3"},{"bufferView":10,"componentType":5126,"count":216,"max":[0.8607968688011169,0.890625],"min":[0.006814124528318644,0],"type":"VEC2"},{"bufferView":11,"componentType":5123,"count":288,"max":[215],"min":[0],"type":"SCALAR"},{"bufferView":12,"componentType":5126,"count":172,"max":[0.29572373628616333,0.421875,0.21875],"min":[-0.29572373628616333,0,-0.6107839345932007],"type":"VEC3"},{"bufferView":13,"componentType":5126,"count":172,"max":[0.9857245683670044,1,0.9662349224090576],"min":[-0.9987252354621887,-1,-1],"type":"VEC3"},{"bufferView":14,"componentType":5126,"count":172,"max":[0.8693109154701233,0.796875],"min":[0,0],"type":"VEC2"},{"bufferView":15,"componentType":5123,"count":228,"max":[171],"min":[0],"type":"SCALAR"},{"bufferView":16,"componentType":5126,"count":40,"max":[0.09351293742656708,0.018818316981196404,0.07575657218694687],"min":[-0.06273706257343292,-0.43430668115615845,-0.08049342781305313],"type":"VEC3"},{"bufferView":17,"componentType":5126,"count":40,"max":[0.9965457320213318,1,0.9965457320213318],"min":[-0.9965457320213318,-1,-0.9965457320213318],"type":"VEC3"},{"bufferView":18,"componentType":5126,"count":40,"max":[0.90234375,0.984375],"min":[0.21875,0.009889066219329834],"type":"VEC2"},{"bufferView":19,"componentType":5123,"count":60,"max":[39],"min":[0],"type":"SCALAR"},{"bufferView":20,"componentType":5126,"count":3,"max":[2.9583332538604736],"min":[0],"type":"SCALAR"},{"bufferView":21,"componentType":5126,"count":3,"max":[0,0,0,1],"min":[-0.1736481785774231,0,0,0.9848077297210693],"type":"VEC4"},{"bufferView":22,"componentType":5126,"count":1,"max":[0],"min":[0],"type":"SCALAR"},{"bufferView":23,"componentType":5126,"count":1,"max":[0,0.625,0],"min":[0,0.625,0],"type":"VEC3"},{"bufferView":24,"componentType":5126,"count":1,"max":[0],"min":[0],"type":"SCALAR"},{"bufferView":25,"componentType":5126,"count":1,"max":[1,1,1],"min":[1,1,1],"type":"VEC3"},{"bufferView":26,"componentType":5126,"count":3,"max":[2.9583332538604736],"min":[0],"type":"SCALAR"},{"bufferView":27,"componentType":5126,"count":3,"max":[0,0,0.19509032368659973,1],"min":[0,0,0,0.9807852506637573],"type":"VEC4"},{"bufferView":28,"componentType":5126,"count":1,"max":[0],"min":[0],"type":"SCALAR"},{"bufferView":29,"componentType":5126,"count":1,"max":[0.3125,0.5625,-0.0625],"min":[0.3125,0.5625,-0.0625],"type":"VEC3"},{"bufferView":30,"componentType":5126,"count":1,"max":[0],"min":[0],"type":"SCALAR"},{"bufferView":31,"componentType":5126,"count":1,"max":[1,1,1],"min":[1,1,1],"type":"VEC3"},{"bufferView":32,"componentType":5126,"count":3,"max":[2.9583332538604736],"min":[0],"type":"SCALAR"},{"bufferView":33,"componentType":5126,"count":3,"max":[-4.2534781179867317e-16,8.460693811023496e-17,0,1],"min":[-4.3368086899420177e-16,0,-0.19509032368659973,0.9807852506637573],"type":"VEC4"},{"bufferView":34,"componentType":5126,"count":1,"max":[0],"min":[0],"type":"SCALAR"},{"bufferView":35,"componentType":5126,"count":1,"max":[-0.25,0.5625,-0.0625],"min":[-0.25,0.5625,-0.0625],"type":"VEC3"},{"bufferView":36,"componentType":5126,"count":1,"max":[0],"min":[0],"type":"SCALAR"},{"bufferView":37,"componentType":5126,"count":1,"max":[1,1,1],"min":[1,1,1],"type":"VEC3"},{"bufferView":38,"componentType":5126,"count":1,"max":[0],"min":[0],"type":"SCALAR"},{"bufferView":39,"componentType":5126,"count":1,"max":[0,0,0,1],"min":[0,0,0,1],"type":"VEC4"},{"bufferView":40,"componentType":5126,"count":1,"max":[0],"min":[0],"type":"SCALAR"},{"bufferView":41,"componentType":5126,"count":1,"max":[0,0.125,0],"min":[0,0.125,0],"type":"VEC3"},{"bufferView":42,"componentType":5126,"count":3,"max":[2.9583332538604736],"min":[0],"type":"SCALAR"},{"bufferView":43,"componentType":5126,"count":3,"max":[1.100000023841858,1,1.100000023841858],"min":[1,1,1],"type":"VEC3"},{"bufferView":44,"componentType":5126,"count":1,"max":[0],"min":[0],"type":"SCALAR"},{"bufferView":45,"componentType":5126,"count":1,"max":[0,0,0,1],"min":[0,0,0,1],"type":"VEC4"},{"bufferView":46,"componentType":5126,"count":1,"max":[0],"min":[0],"type":"SCALAR"},{"bufferView":47,"componentType":5126,"count":1,"max":[1.2505499569215317e-7,0.5643213987350464,0.2146752029657364],"min":[1.2505499569215317e-7,0.5643213987350464,0.2146752029657364],"type":"VEC3"},{"bufferView":48,"componentType":5126,"count":1,"max":[0],"min":[0],"type":"SCALAR"},{"bufferView":49,"componentType":5126,"count":1,"max":[1,1,1],"min":[1,1,1],"type":"VEC3"},{"bufferView":50,"componentType":5126,"count":37,"max":[2],"min":[0],"type":"SCALAR"},{"bufferView":51,"componentType":5126,"count":37,"max":[0,0.6875,0],"min":[0,0.5625,0],"type":"VEC3"},{"bufferView":52,"componentType":5126,"count":37,"max":[2],"min":[0],"type":"SCALAR"},{"bufferView":53,"componentType":5126,"count":37,"max":[0.591309666633606,0,0,1],"min":[-0.591309666633606,0,0,0.8064445853233337],"type":"VEC4"},{"bufferView":54,"componentType":5126,"count":37,"max":[2],"min":[0],"type":"SCALAR"},{"bufferView":55,"componentType":5126,"count":37,"max":[0.591309666633606,0,0,1],"min":[-0.591309666633606,0,0,0.8064445853233337],"type":"VEC4"},{"bufferView":56,"componentType":5126,"count":38,"max":[2],"min":[0],"type":"SCALAR"},{"bufferView":57,"componentType":5126,"count":38,"max":[1,1,1.2013888359069824],"min":[1,1,0.7956597208976746],"type":"VEC3"},{"bufferView":58,"componentType":5126,"count":37,"max":[2],"min":[0],"type":"SCALAR"},{"bufferView":59,"componentType":5126,"count":37,"max":[1.2505499569215317e-7,0.6893213987350464,0.2146752029657364],"min":[1.2505499569215317e-7,0.5018213987350464,0.2146752029657364],"type":"VEC3"}],"materials":[{"pbrMetallicRoughness":{"metallicFactor":0,"roughnessFactor":1,"baseColorTexture":{"index":0}},"alphaMode":"MASK","alphaCutoff":0.05,"doubleSided":true}],"textures":[{"sampler":0,"source":0,"name":"void_wizard_txt.png"}],"samplers":[{"magFilter":9728,"minFilter":9728,"wrapS":33071,"wrapT":33071}],"images":[{"mimeType":"image/png","uri":"data:image/png;base64,"}],"meshes":[{"primitives":[{"mode":4,"attributes":{"POSITION":0,"NORMAL":1,"TEXCOORD_0":2},"indices":3,"material":0}]},{"primitives":[{"mode":4,"attributes":{"POSITION":4,"NORMAL":5,"TEXCOORD_0":6},"indices":7,"material":0}]},{"primitives":[{"mode":4,"attributes":{"POSITION":8,"NORMAL":9,"TEXCOORD_0":10},"indices":11,"material":0}]},{"primitives":[{"mode":4,"attributes":{"POSITION":12,"NORMAL":13,"TEXCOORD_0":14},"indices":15,"material":0}]},{"primitives":[{"mode":4,"attributes":{"POSITION":16,"NORMAL":17,"TEXCOORD_0":18},"indices":19,"material":0}]}],"animations":[{"name":"idle","samplers":[{"input":20,"output":21,"interpolation":"LINEAR"},{"input":22,"output":23,"interpolation":"LINEAR"},{"input":24,"output":25,"interpolation":"LINEAR"},{"input":26,"output":27,"interpolation":"LINEAR"},{"input":28,"output":29,"interpolation":"LINEAR"},{"input":30,"output":31,"interpolation":"LINEAR"},{"input":32,"output":33,"interpolation":"LINEAR"},{"input":34,"output":35,"interpolation":"LINEAR"},{"input":36,"output":37,"interpolation":"LINEAR"},{"input":38,"output":39,"interpolation":"LINEAR"},{"input":40,"output":41,"interpolation":"LINEAR"},{"input":42,"output":43,"interpolation":"LINEAR"},{"input":44,"output":45,"interpolation":"LINEAR"},{"input":46,"output":47,"interpolation":"LINEAR"},{"input":48,"output":49,"interpolation":"LINEAR"}],"channels":[{"sampler":0,"target":{"node":7,"path":"rotation"}},{"sampler":1,"target":{"node":7,"path":"translation"}},{"sampler":2,"target":{"node":7,"path":"scale"}},{"sampler":3,"target":{"node":3,"path":"rotation"}},{"sampler":4,"target":{"node":3,"path":"translation"}},{"sampler":5,"target":{"node":3,"path":"scale"}},{"sampler":6,"target":{"node":9,"path":"rotation"}},{"sampler":7,"target":{"node":9,"path":"translation"}},{"sampler":8,"target":{"node":9,"path":"scale"}},{"sampler":9,"target":{"node":1,"path":"rotation"}},{"sampler":10,"target":{"node":1,"path":"translation"}},{"sampler":11,"target":{"node":1,"path":"scale"}},{"sampler":12,"target":{"node":5,"path":"rotation"}},{"sampler":13,"target":{"node":5,"path":"translation"}},{"sampler":14,"target":{"node":5,"path":"scale"}}]},{"name":"walk","samplers":[{"input":50,"output":51,"interpolation":"LINEAR"},{"input":52,"output":53,"interpolation":"LINEAR"},{"input":54,"output":55,"interpolation":"LINEAR"},{"input":56,"output":57,"interpolation":"LINEAR"},{"input":58,"output":59,"interpolation":"LINEAR"}],"channels":[{"sampler":0,"target":{"node":7,"path":"translation"}},{"sampler":1,"target":{"node":3,"path":"rotation"}},{"sampler":2,"target":{"node":9,"path":"rotation"}},{"sampler":3,"target":{"node":1,"path":"scale"}},{"sampler":4,"target":{"node":5,"path":"translation"}}]}]}