{"asset":{"version":"2.0","generator":"Blockbench 4.10.0 glTF exporter"},"scenes":[{"nodes":[9],"name":"blockbench_export"}],"scene":0,"nodes":[{"name":"cuboid","mesh":0},{"translation":[0.03125,0.12239583333333141,-0.18750000000000022],"name":"head","children":[0]},{"name":"cuboid_selection","mesh":1},{"rotation":[-1,0,0,3.8359906236829e-15],"translation":[0,0.020833333333334078,-0.15624999999999944],"name":"cuboid_selection","mesh":2},{"rotation":[-1,0,0,3.8359906236829e-15],"translation":[2.7755575615628914e-17,-0.020833333333331386,2.220446049250313e-16],"name":"cuboid","mesh":3},{"translation":[-2.7755575615628914e-17,0.041666666666665464,0.15625000000000033],"name":"tail","children":[4]},{"translation":[0,-0.020833333333334078,0.46874999999999944],"name":"body2","children":[3,5]},{"translation":[0.03125,0.12239583333333141,-0.18750000000000022],"name":"body1","children":[2,6]},{"name":"full","children":[1,7]},{"children":[8]}],"bufferViews":[{"buffer":0,"byteOffset":0,"byteLength":912,"target":34962,"byteStride":12},{"buffer":0,"byteOffset":912,"byteLength":912,"target":34962,"byteStride":12},{"buffer":0,"byteOffset":1824,"byteLength":608,"target":34962,"byteStride":8},{"buffer":0,"byteOffset":2432,"byteLength":228,"target":34963},{"buffer":0,"byteOffset":2660,"byteLength":1248,"target":34962,"byteStride":12},{"buffer":0,"byteOffset":3908,"byteLength":1248,"target":34962,"byteStride":12},{"buffer":0,"byteOffset":5156,"byteLength":832,"target":34962,"byteStride":8},{"buffer":0,"byteOffset":5988,"byteLength":288,"target":34963},{"buffer":0,"byteOffset":6276,"byteLength":1056,"target":34962,"byteStride":12},{"buffer":0,"byteOffset":7332,"byteLength":1056,"target":34962,"byteStride":12},{"buffer":0,"byteOffset":8388,"byteLength":704,"target":34962,"byteStride":8},{"buffer":0,"byteOffset":9092,"byteLength":240,"target":34963},{"buffer":0,"byteOffset":9332,"byteLength":528,"target":34962,"byteStride":12},{"buffer":0,"byteOffset":9860,"byteLength":528,"target":34962,"byteStride":12},{"buffer":0,"byteOffset":10388,"byteLength":352,"target":34962,"byteStride":8},{"buffer":0,"byteOffset":10740,"byteLength":120,"target":34963},{"buffer":0,"byteOffset":10860,"byteLength":16},{"buffer":0,"byteOffset":10876,"byteLength":64},{"buffer":0,"byteOffset":10940,"byteLength":16},{"buffer":0,"byteOffset":10956,"byteLength":64},{"buffer":0,"byteOffset":11020,"byteLength":16},{"buffer":0,"byteOffset":11036,"byteLength":64},{"buffer":0,"byteOffset":11100,"byteLength":16},{"buffer":0,"byteOffset":11116,"byteLength":64},{"buffer":0,"byteOffset":11180,"byteLength":12},{"buffer":0,"byteOffset":11192,"byteLength":36}],"buffers":[{"byteLength":11228,"uri":"data:application/octet-stream;base64,"}],"accessors":[{"bufferView":0,"componentType":5126,"count":76,"max":[0.08948863297700882,0.0807291641831398,0.125],"min":[-0.08948863297700882,-0.1223958358168602,-0.3125],"type":"VEC3"},{"bufferView":1,"componentType":5126,"count":76,"max":[0.9899044632911682,0.9870527386665344,0.4472135901451111],"min":[-0.9899044632911682,-0.9870527386665344,-1],"type":"VEC3"},{"bufferView":2,"componentType":5126,"count":76,"max":[0.8728687763214111,0.8515625],"min":[0,0.10703122615814209],"type":"VEC2"},{"bufferView":3,"componentType":5123,"count":114,"max":[75],"min":[0],"type":"SCALAR"},{"bufferView":4,"componentType":5126,"count":104,"max":[0.140625,0.0807291641831398,0.375],"min":[-0.140625,-0.1223958358168602,-0.0625],"type":"VEC3"},{"bufferView":5,"componentType":5126,"count":104,"max":[0.9180623292922974,1,0.5299989581108093],"min":[-0.8944271802902222,-1,-0.7808688282966614],"type":"VEC3"},{"bufferView":6,"componentType":5126,"count":104,"max":[0.8671875,0.75],"min":[0,0],"type":"VEC2"},{"bufferView":7,"componentType":5123,"count":144,"max":[103],"min":[0],"type":"SCALAR"},{"bufferView":8,"componentType":5126,"count":88,"max":[0.140625,0.1223958358168602,0.0625],"min":[-0.140625,-0.0807291641831398,-0.375],"type":"VEC3"},{"bufferView":9,"componentType":5126,"count":88,"max":[0.8944271802902222,1,0.7474093437194824],"min":[-0.8944271802902222,-1,-0.7808688282966614],"type":"VEC3"},{"bufferView":10,"componentType":5126,"count":88,"max":[0.8435554504394531,0.8515625],"min":[0.0625,0],"type":"VEC2"},{"bufferView":11,"componentType":5123,"count":120,"max":[87],"min":[0],"type":"SCALAR"},{"bufferView":12,"componentType":5126,"count":44,"max":[0.06392045319080353,0.0911458358168602,3.8163916471489756e-16],"min":[-0.06392045319080353,-0.0494791679084301,-0.3125],"type":"VEC3"},{"bufferView":13,"componentType":5126,"count":44,"max":[0.9688334465026855,0.9626509547233582,0.23151515424251556],"min":[-0.9688334465026855,-0.9728313088417053,-0.6249238848686218],"type":"VEC3"},{"bufferView":14,"componentType":5126,"count":44,"max":[0.8600843548774719,0.8671875],"min":[0.17116563022136688,0.08203125],"type":"VEC2"},{"bufferView":15,"componentType":5123,"count":60,"max":[43],"min":[0],"type":"SCALAR"},{"bufferView":16,"componentType":5126,"count":4,"max":[2],"min":[0],"type":"SCALAR"},{"bufferView":17,"componentType":5126,"count":4,"max":[0,0.19509032368659973,0,1],"min":[0,-0.19509032368659973,0,0.9807852506637573],"type":"VEC4"},{"bufferView":18,"componentType":5126,"count":4,"max":[2],"min":[0],"type":"SCALAR"},{"bufferView":19,"componentType":5126,"count":4,"max":[0,0.19509032368659973,0,1],"min":[0,-0.19509032368659973,0,0.9807852506637573],"type":"VEC4"},{"bufferView":20,"componentType":5126,"count":4,"max":[2],"min":[0],"type":"SCALAR"},{"bufferView":21,"componentType":5126,"count":4,"max":[0,0.19509032368659973,0,1],"min":[0,-0.19509032368659973,0,0.9807852506637573],"type":"VEC4"},{"bufferView":22,"componentType":5126,"count":4,"max":[2],"min":[0],"type":"SCALAR"},{"bufferView":23,"componentType":5126,"count":4,"max":[0,0.3826834261417389,0,1],"min":[0,-0.3826834261417389,0,0.9238795042037964],"type":"VEC4"},{"bufferView":24,"componentType":5126,"count":3,"max":[1.4583333730697632],"min":[0],"type":"SCALAR"},{"bufferView":25,"componentType":5126,"count":3,"max":[-2.7755575615628914e-17,0.0416666679084301,0.15625],"min":[-2.7755575615628914e-17,-0.02083333395421505,0.15625],"type":"VEC3"}],"materials":[{"pbrMetallicRoughness":{"metallicFactor":0,"roughnessFactor":1,"baseColorTexture":{"index":0}},"alphaMode":"MASK","alphaCutoff":0.05,"doubleSided":true}],"textures":[{"sampler":0,"source":0,"name":"void_ling_1_txt"}],"samplers":[{"magFilter":9728,"minFilter":9728,"wrapS":33071,"wrapT":33071}],"images":[{"mimeType":"image/png","uri":"data:image/png;base64,"}],"meshes":[{"primitives":[{"mode":4,"attributes":{"POSITION":0,"NORMAL":1,"TEXCOORD_0":2},"indices":3,"material":0}]},{"primitives":[{"mode":4,"attributes":{"POSITION":4,"NORMAL":5,"TEXCOORD_0":6},"indices":7,"material":0}]},{"primitives":[{"mode":4,"attributes":{"POSITION":8,"NORMAL":9,"TEXCOORD_0":10},"indices":11,"material":0}]},{"primitives":[{"mode":4,"attributes":{"POSITION":12,"NORMAL":13,"TEXCOORD_0":14},"indices":15,"material":0}]}],"animations":[{"name":"walk","samplers":[{"input":16,"output":17,"interpolation":"LINEAR"},{"input":18,"output":19,"interpolation":"LINEAR"},{"input":20,"output":21,"interpolation":"LINEAR"},{"input":22,"output":23,"interpolation":"LINEAR"},{"input":24,"output":25,"interpolation":"LINEAR"}],"channels":[{"sampler":0,"target":{"node":1,"path":"rotation"}},{"sampler":1,"target":{"node":7,"path":"rotation"}},{"sampler":2,"target":{"node":6,"path":"rotation"}},{"sampler":3,"target":{"node":5,"path":"rotation"}},{"sampler":4,"target":{"node":5,"path":"translation"}}]}]}